/* XPM */
static char *_5hufd0c[] = {
/* columns rows colors chars-per-pixel */
"60 60 193 2 ",
"   c #010104",
".  c #00020B",
"X  c #0B0B0B",
"o  c #0E0707",
"O  c #120A0D",
"+  c #1D0A0C",
"@  c #000513",
"#  c #0E0610",
"$  c #0A0B13",
"%  c #010B1A",
"&  c #070A18",
"*  c #140B12",
"=  c #180D15",
"-  c #100F1B",
";  c #01111F",
":  c #0C101F",
">  c #121212",
",  c #13111C",
"<  c #191419",
"1  c #1B1B1B",
"2  c #191614",
"3  c #2D0A07",
"4  c #230D0C",
"5  c #2B0D0B",
"6  c #340D0B",
"7  c #380E0E",
"8  c #24100F",
"9  c #2B110E",
"0  c #36110D",
"q  c #3A110D",
"w  c #220C11",
"e  c #3A0E11",
"r  c #251212",
"t  c #22131B",
"y  c #2A1919",
"u  c #3E1311",
"i  c #331A1B",
"p  c #3C1D1D",
"a  c #371713",
"s  c #35220E",
"d  c #372210",
"f  c #3B2511",
"g  c #011422",
"h  c #091623",
"j  c #011925",
"k  c #021B2B",
"l  c #0A1B27",
"z  c #1F1F20",
"x  c #191D29",
"c  c #021F30",
"v  c #271721",
"b  c #241C24",
"n  c #2B1C21",
"m  c #241F2C",
"M  c #331E24",
"N  c #3B1E20",
"B  c #06202D",
"V  c #022233",
"C  c #032639",
"Z  c #032A3C",
"A  c #16303F",
"S  c #232323",
"D  c #24262C",
"F  c #2A232B",
"G  c #2C2B2C",
"H  c #392524",
"J  c #33252C",
"K  c #372725",
"L  c #38322D",
"P  c #282531",
"I  c #322D39",
"U  c #343334",
"Y  c #323339",
"T  c #32393D",
"R  c #3C3A3C",
"E  c #3B3339",
"W  c #43160D",
"Q  c #45180D",
"!  c #49190E",
"~  c #431415",
"^  c #461A12",
"/  c #4C1B14",
"(  c #4E1D18",
")  c #491715",
"_  c #511D18",
"`  c #452214",
"'  c #4A2416",
"]  c #412913",
"[  c #4C2918",
"{  c #55221A",
"}  c #59241C",
"|  c #5D291E",
" . c #512014",
".. c #4C3218",
"X. c #5B3C1E",
"o. c #55381C",
"O. c #602B1F",
"+. c #682A1E",
"@. c #742B1E",
"#. c #421D20",
"$. c #422526",
"%. c #422E2A",
"&. c #542C27",
"*. c #49322F",
"=. c #422E32",
"-. c #4A3435",
";. c #433A3D",
":. c #4B3C3B",
">. c #443533",
",. c #5D3A34",
"<. c #612B21",
"1. c #57413D",
"2. c #754E2A",
"3. c #694731",
"4. c #032D41",
"5. c #043246",
"6. c #05344B",
"7. c #3C3C46",
"8. c #433E42",
"9. c #424243",
"0. c #494544",
"q. c #454449",
"w. c #494949",
"e. c #4C4348",
"r. c #5A4C4C",
"t. c #4A4C50",
"y. c #564E59",
"u. c #535353",
"i. c #5B5253",
"p. c #5D5B5D",
"a. c #595658",
"s. c #6D584C",
"d. c #62575A",
"f. c #655C58",
"g. c #765D51",
"h. c #7F6559",
"j. c #625C60",
"k. c #646364",
"l. c #6B6A6B",
"z. c #6A6565",
"x. c #746D6E",
"c. c #747475",
"v. c #7A7A7A",
"b. c #77767A",
"n. c #8E3C36",
"m. c #9A4039",
"M. c #B05F4C",
"N. c #8F705D",
"B. c #856754",
"V. c #BC765A",
"C. c #AE795D",
"Z. c #927062",
"A. c #817C7F",
"S. c #827E76",
"D. c #B87E61",
"F. c #8E8B7F",
"G. c #94867D",
"H. c #A1816B",
"J. c #DA9A77",
"K. c #CE8A67",
"L. c #E4A37C",
"P. c #837F81",
"I. c #828282",
"U. c #898587",
"Y. c #8A8A8A",
"T. c #8D8D8D",
"R. c #969696",
"E. c #9C9C9C",
"W. c #9D9797",
"Q. c #9A9988",
"!. c #9EA194",
"~. c #A4A3A3",
"^. c #A8A6A7",
"/. c #AFAEAE",
"(. c #B4B4B4",
"). c #BDBCBC",
"_. c #E3AE8F",
"`. c #EBBC9F",
"'. c #F3C8AB",
"]. c #C1BFC0",
"[. c #C5C5C5",
"{. c #D7D7D7",
"}. c #D1D1D1",
"|. c #DFDFDF",
" X c #E9D8D1",
".X c #F9E0D0",
"XX c #F6E5DD",
"oX c #E5E5E5",
"OX c #EBEBEB",
"+X c #FAEDE8",
"@X c #F5F5F5",
"#X c white",
"$X c #FFFFFF",
/* pixels */
"#X#X#X#X#X#X#X#X#X#X#X#X#X#X#X#X#X#X#X#X#X#X#X#XOX{.{.{.>   .   > {.{.{.OX#X#X#X#X#X#X#X#X#X#X#X#X#X#X#X#X#X#X#X#X#X#X#X",
"#X#X#X#X#X#X#X#X#X#X#X#X#X#X#X#X#X#X#X#X#X#X#X#Xv.      @ . . @ @       v.#X#X#X#X#X#X#X#X#X#X#X#X#X#X#X#X#X#X#X#X#X#X#X",
"#X#X#X#X#X#X#X#X#X#X#X#X#X#X#X#X#X#X#X#X#X#Xz X   . @   @ . . @ @     . . X z #X#X#X#X#X#X#X#X#X#X#X#X#X#X#X#X#X#X#X#X#X",
"#X#X#X#X#X#X#X#X#X#X#X#X#X#X#X#X#X#X#X#XoX9.    . @ @   @ @ @ % @   . .       9.oX#X#X#X#X#X#X#X#X#X#X#X#X#X#X#X#X#X#X#X",
"#X#X#X#X#X#X#X#X#X#X#X#X#X#X#X#X#X#X#X}.p.    . @ @ @ . @ @ % % @   @ . . . .   p.}.#X#X#X#X#X#X#X#X#X#X#X#X#X#X#X#X#X#X",
"#X#X#X#X#X#X#X#X#X#X#X#X#X#X#X#X#X#X#XW.      @ @ @ @ @ @ % % % @ . @ @ @ . @ .   z.}.#X#X#X#X#X#X#X#X#X#X#X#X#X#X#X#X#X",
"#X#X#X#X#X#X#X#X#X#X#X#X#X#X#X#X#X#XOXz.  . . @ @ @ % @ g g g % % @ % % % % @ . .   b.#X#X#X#X#X#X#X#X#X#X#X#X#X#X#X#X#X",
"#X#X#X#X#X#X#X#X#X#X#X#X#X#X#X#X#X#Xb.  @ @ % @ @ ; j % 5.6.C g % % @ ; j g % @ @   b.#X#X#X#X#X#X#X#X#X#X#X#X#X#X#X#X#X",
"#X#X#X#X#X#X#X#X#X#X#X#X#X#X#X#X#X#X8.  @ % g @ k Z k 6.k 4.6.Z g % . @ V C @ % @ @ . t.#X#X#X#X#X#X#X#X#X#X#X#X#X#X#X#X",
"#X#X#X#X#X#X#X#X#X#X#X#X#X#X#X#X#X#XR   % % Z g g V 4.V 4.V Z 4.j % @ % V Z % % % @   9.#X#X#X#X#X#X#X#X#X#X#X#X#X#X#X#X",
"#X#X#X#X#X#X#X#X#X#X#X#X#X#X#X#X#X#XR   @ @ 5.k g V 6.C 6.V B C V % @ k V k @ @ @ @   9.#X#X#X#X#X#X#X#X#X#X#X#X#X#X#X#X",
"#X#X#X#X#X#X#X#X#X#X#X#X#X#X#X#X#X#XR >   @ Z g g V 6.4.4.V k V 5.; % V c % @ . . , $ 9.#X#X#X#X#X#X#X#X#X#X#X#X#X#X#X#X",
"#X#X#X#X#X#X#X#X#X#X#X#X#X#X#X#X#X}.R U X & l g g V 4.j k Z C V 5.j % g k j & : $ U D 7.#X#X#X#X#X#X#X#X#X#X#X#X#X#X#X#X",
"#X#X#X#X#X#X#X#X#X#X#X#X#X#X#X#X#X< D w.w.w.w.x V 4.j j 6.V C 4.j j % g C A w.w.w.w.D < #X#X#X#X#X#X#X#X#X#X#X#X#X#X#X#X",
"#X#X#X#X#X#X#X#X#X#X#X#X#X#X#X#X#X< L a.b.~.(.k.9.9.9.q.9.9.9.9.9.9.9.9.9.k.(.~.b.a.D 2 #X#X#X#X#X#X#X#X#X#X#X#X#X#X#X#X",
"#X#X#X#X#X#X#X#X#X#X#X#X#X#X#X#Xu.U 3.g.a.k.l.~./.~.W.T.w.T.W.b.w.l.Y.R.W.T.l.k.a.G X < #X#X#X#X#X#X#X#X#X#X#X#X#X#X#X#X",
"#X#X#X#X#X#X#X#X#X#X#X#X#X#X#X#XY.e.Z.N.S D D c.T.U.v.c.w.c.A.l.w.k.c.v.I.l.D D D $   2 #X#X#X#X#X#X#X#X#X#X#X#X#X#X#X#X",
"#X#X#X#X#X#X#X#X#X#X#X#X#X#X#X#X#X;.h.H.  % @ D Y Y Y T q.u.u.w.a.w.T 7.T P @   @ .   < #X#X#X#X#X#X#X#X#X#X#X#X#X#X#X#X",
"#X#X#X#X#X#X#X#X#X#X#X#X#X#X#X#X#X1 %.B.  . @ % @ @ % k 9.l.k.a.b.w.B ; @ @ % . % @   1 #X#X#X#X#X#X#X#X#X#X#X#X#X#X#X#X",
"#X#X#X#X#X#X#X#X#X#X#X#X#X#X#X#X#X9.        @ @ @ % g 6.9.Y.b.z.E.w.h % @ . % @ . .   9.#X#X#X#X#X#X#X#X#X#X#X#X#X#X#X#X",
"#X#X#X#X#X#X#X#X#X#X#X#X#X#X#X#X#X9.  .   . . . @ % g 6.9.W.I.z.E.w.h % @   . %     . q.#X#X#X#X#X#X#X#X#X#X#X#X#X#X#X#X",
"#X#X#X#X#X#X#X#X#X#X#X#X#X#X#X#X#X[.a.    . . @ @ @ % V 9.~.Y.z.E.w.& % % . . @     . t.#X#X#X#X#X#X#X#X#X#X#X#X#X#X#X#X",
"#X#X#X#X#X#X#X#X#X#X#X#X#X#X#X#X#Xi.=.M i *.n - @ @ % g 9.~.Y.z.E.w.$ k g $ i *.K K M J #X#X#X#X#X#X#X#X#X#X#X#X#X#X#X#X",
"#X#X#X#X#X#X#X#X#X#X#X#X#X#X#X#Xx.p 6 6 3 3 q M < , % % 9.~.Y.z.E.w.$ x x M 7 3 3 6 6 p x.#X#X#X#X#X#X#X#X#X#X#X#X#X#X#X",
"#X#X#X#X#X#X#X#X#X#X#X#X#X#X@X].6 Q ^ u 6 6 | q 6 i & : 9.~.T.k.R.9.- i 6 0 / 3 6 W ^ u 6 ].@X#X#X#X#X#X#X#X#X#X#X#X#X#X",
"#X#X#X#X#X#X#X#X#X#X#X#X#X#X^.3 ~ @.+.{ | ~ | { } { 3 3 9.(.R.w.9.3 3 ^ } | / 3 / | } / Q 3 ^.#X#X#X#X#X#X#X#X#X#X#X#X#X",
"#X#X#X#X#X#X#X#X#X#X#X#X#X#X^.3 / | } { | ~ | { } | ( | 0.(.R.:.&./ } { } | / 3 / | } } @.3 ^.#X#X#X#X#X#X#X#X#X#X#X#X#X",
"#X#X#X#X#X#X#X#X#X#X#X#X#XA.p W ( | } { | ~ u 0 q ~ _ <.0.(.R.:.O._ | ^ 0 q 0 3 / | } { +.e N A.#X#X#X#X#X#X#X#X#X#X#X#X",
"#X#X#X#X#X#X#X#X#X#X#X#X#Xd.6 ! _ | } { | ~ q 7 0 q ~ / %.v.z.$.^ ~ ^ u 0 0 6 q ~ } } { | ~ 6 d.#X#X#X#X#X#X#X#X#X#X#X#X",
"#X#X#X#X#X#X#X#X#X#X#X#X#Xd.6 / _ | } _ } ~ / ) / ^ 6 6 6 K H 6 6 6 6 ~ / / ~ / u { } { | ~ 6 d.#X#X#X#X#X#X#X#X#X#X#X#X",
"#X#X#X#X#X#X#X#X#X#X#X#XoXi.0 <._ | { / ) _ O.{ } } ~ / ~ ) ^ ~ ) ~ ) / } | _ <.6 ' } { <._ 6 r.oX#X#X#X#X#X#X#X#X#X#X#X",
"#X#X#X#X#X#X#X#X#X#X#X#X=.6 ~ <._ | ^ 6 ) _ O.{ } | _ <._ | } { O._ O.{ } | _ <.6 W / { <._ ) 6 =.#X#X#X#X#X#X#X#X#X#X#X",
"#X#X#X#X#X#X#X#X#X#X#X#X=.6 ~ <._ | ^ 6 ) _ O.{ } | _ <._ | } { O._ | { } | _ <.~ 6 ~ { <._ ) 6 =.#X#X#X#X#X#X#X#X#X#X#X",
"#X#X#X#X#X#X#X#X#X#X#X#X=.6 ~ <._ | ^ 6 ) _ O.{ } | _ <._ | } { O._ | { } | _ <.~ 6 u { <._ ) 6 =.#X#X#X#X#X#X#X#X#X#X#X",
"#X#X#X#X#X#X#X#X#X#X#X#X=.6 ~ <._ | ^ 6 q ^ | { } | _ <._ | } { O._ | { } | _ [ ~ 6 u { O._ ) 6 =.#X#X#X#X#X#X#X#X#X#X#X",
"#X#X#X#X#X#X#X#X#X#X#X#X=.6 ~ <._ { ~ a p s { { _ { _ <._ | } { O._ | ( _ } / s ~ 6 0 ( <._ ) 6 =.#X#X#X#X#X#X#X#X#X#X#X",
"#X#X#X#X#X#X#X#X#X#X#X#X=.6 ~ } / 0 5 5 y s s ^ 0 0 ( | ( | } { | ( | u q ^ s s ~ 6 5 a } / Q 6 =.#X#X#X#X#X#X#X#X#X#X#X",
"#X#X#X#X#X#X#X#X#X#X#X#Xv # # # # # *.* O s s f ] ] ] ] ] ] ] ] ] ] ] ] ] f s s ( 0 i # # # # # v #X#X#X#X#X#X#X#X#X#X#X",
"#X#X#X#X#X#X#X#X#X#X#X#Xv F f.Q.d.G t r O 3 d s f ..X.X.2.2.3.X.X.] ] ] f s d | 0 w t Y b.i.i.F v #X#X#X#X#X#X#X#X#X#X#X",
"#X#X#X#X#X#X#X#X#X#X#X#Xv b i.S.Q.;.m F O e { f d f ] ..o.o...] ] d d d d f / <.+ F m 8.!.k.r.b v #X#X#X#X#X#X#X#X#X#X#X",
"#X#X#X#X#X#X#X#X#X#X#X#XJ b 8.i.F.u.q.E * ~ | ' ` ` ` ` ` [ ' ` ' a ' ` ` ' _ <.O E q.u.U.i.8.b J #X#X#X#X#X#X#X#X#X#X#X",
"#X#X#X#X#X#X#X#X#X#X#X#Xj.b I ;.j.p.i.;.* _ O.{ } | / W / | } { | u | { } | _ <.O ;.i.p.j.;.I b j.#X#X#X#X#X#X#X#X#X#X#X",
"#X#X#X#X#X#X#X#X#X#X#X#X#Xb.= ;.y.7.P < * _ O.{ } | / 3 / | } { | 3 | { } | _ <.O < P 7.y.;.= b.#X#X#X#X#X#X#X#X#X#X#X#X",
"#X#X#X#X#X#X#X#X#X#X#X#X#X#X).# # # # w ) _ O.{ } } u 3 / | } { | 3 Q / } | _ <.~ + # # # # ).#X#X#X#X#X#X#X#X#X#X#X#X#X",
"#X#X#X#X#X#X#X#X#X#X#X#X#X#X@X(.(.-.5 6 ^ ~ / ~ ) Q 6 3 ~ ) ^ ~ ) 3 Q / } | _ <.~ q 6 -.(.(.@X#X#X#X#X#X#X#X#X#X#X#X#X#X",
"#X#X#X#X#X#X#X#X#X#X#X#X#X#X#X#X#X).x.i 6 6 6 6 6 a n n 6 6 6 6 0 n 0 ~ / ( ~  .~ 0 6 r.#X#X#X#X#X#X#X#X#X#X#X#X#X#X#X#X",
"#X#X#X#X#X#X#X#X#X#X#X#X#X#X#X#X#X#Xb.o 8 r 4 8 r r > > + K >.K + > 4 6 0 q 7 q 7 4 :.W.#X#X#X#X#X#X#X#X#X#X#X#X#X#X#X#X",
"#X#X#X#X#X#X#X#X#X#X#X#X#X#X#X#X#X#Xb.X S G S 1 1 1 1 X   (.#X(.  X 1 r 5 5 9 9 9 O b.#X#X#X#X#X#X#X#X#X#X#X#X#X#X#X#X#X",
"#X#X#X#X#X#X#X#X#X#X#X#X#X#X#X#X#X#Xb.X G 1 G S 1 1 >     (.#X(.    > 2 1 S G 1 G X b.#X#X#X#X#X#X#X#X#X#X#X#X#X#X#X#X#X",
"#X#X#X#X#X#X#X#X#X#X#X#X#X#X#X#X#X#Xb.> R G 1 1 > > 1 >   (.#X(.  > 1 > > 1 1 G R > b.#X#X#X#X#X#X#X#X#X#X#X#X#X#X#X#X#X",
"#X#X#X#X#X#X#X#X#X#X#X#X#X#X#X#X#X#XU.K X X D S 1 1 > >   (.#X(.  > > 2 1 S D X X H U.#X#X#X#X#X#X#X#X#X#X#X#X#X#X#X#X#X",
"#X#X#X#X#X#X#X#X#X#X#X#X#X#X#X#X#X#XA.#.<.<.2 X > > >     (.#X(.    > > > X 2 <.<.#.A.#X#X#X#X#X#X#X#X#X#X#X#X#X#X#X#X#X",
"#X#X#X#X#X#X#X#X#X#X#X#X#X#X#X#X#X#XP.&.M.M.s.f.L X X     (.#X(.    X X L f.s.M.M.&.A.#X#X#X#X#X#X#X#X#X#X#X#X#X#X#X#X#X",
"#X#X#X#X#X#X#X#X#X#X#X#X#X#X#X#X#X#XA.,.D.K.XX+XG.K y   U [.#X[.U   y K G.+XXXC.K.,.A.#X#X#X#X#X#X#X#X#X#X#X#X#X#X#X#X#X",
"#X#X#X#X#X#X#X#X#X#X#X#X#X#X#X#X#X#XP.1.i.L.XX+X.X`.V.t oX#X#X#XoXt V.`..X+X XG D.,.P.#X#X#X#X#X#X#X#X#X#X#X#X#X#X#X#X#X",
"#X#X#X#X#X#X#X#X#X#X#X#X#X#X#X#X#X#X#Xv.G m.J.'._.V.n.t oX#X#X#XoXt n.V._.'.J.w.M /.#X#X#X#X#X#X#X#X#X#X#X#X#X#X#X#X#X#X",
"#X#X#X#X#X#X#X#X#X#X#X#X#X#X#X#X#X#X#X~.U 0.*.-.-.$.=.}.l.[.~.U.$X}.=.$.-.:.0.U ~.OX#X#X#X#X#X#X#X#X#X#X#X#X#X#X#X#X#X#X",
"#X#X#X#X#X#X#X#X#X#X#X#X#X#X#X#X#X#X#X|.T.R k.k.k.k.z.I.R (.T.w.I.I.z.k.k.a.R l.OX#X#X#X#X#X#X#X#X#X#X#X#X#X#X#X#X#X#X#X",
"#X#X#X#X#X#X#X#X#X#X#X#X#X#X#X#X#X#X#X#XOXb.9.9.9.9.9.9.c.}.(.z.9.9.9.1.9.w.I.#X#X#X#X#X#X#X#X#X#X#X#X#X#X#X#X#X#X#X#X#X",
"#X#X#X#X#X#X#X#X#X#X#X#X#X#X#X#X#X#X#X#X#X#Xp.u.u.u.u.u.OX#X#X[.u.u.u.u.u.v.#X#X#X#X#X#X#X#X#X#X#X#X#X#X#X#X#X#X#X#X#X#X"
};
