/* XPM */
static char *_96ab4ec71a34ff28c622dfe1c5e292emOfLj4EKzKEnPy6m[] = {
/* columns rows colors chars-per-pixel */
"48 48 124 2 ",
"   c #0D0805",
".  c #0F0E0B",
"X  c #100E0B",
"o  c #0F100F",
"O  c #12110F",
"+  c #0F1111",
"@  c #0F1819",
"#  c #131412",
"$  c #1A1613",
"%  c #151817",
"&  c #1F1B16",
"*  c #141C1C",
"=  c #1C1C1B",
"-  c #241E17",
";  c #291E14",
":  c #241E18",
">  c #291A19",
",  c #17201F",
"<  c #1C201F",
"1  c #2B2117",
"2  c #262019",
"3  c #2C2219",
"4  c #32241E",
"5  c #33281E",
"6  c #3E2C1D",
"7  c #131F20",
"8  c #1A1F20",
"9  c #221F20",
"0  c #152324",
"q  c #1A2223",
"w  c #172628",
"e  c #182729",
"r  c #1A2A2C",
"t  c #1D2E30",
"y  c #1F3133",
"u  c #232222",
"i  c #2A2523",
"p  c #2B2826",
"a  c #202728",
"s  c #222B2D",
"d  c #342520",
"f  c #3B2D22",
"g  c #312F2E",
"h  c #3C3123",
"j  c #35302F",
"k  c #3B372F",
"l  c #232D30",
"z  c #223336",
"x  c #233538",
"c  c #29363B",
"v  c #243A3C",
"b  c #2A393F",
"n  c #393530",
"m  c #3D3931",
"M  c #3C3D3E",
"N  c #442F1D",
"B  c #402D21",
"V  c #443323",
"C  c #4A3625",
"Z  c #4A3827",
"A  c #4E3A29",
"S  c #533B26",
"D  c #5E3E22",
"F  c #533D2A",
"G  c #5B3E28",
"H  c #433C35",
"J  c #483F34",
"K  c #5D4127",
"L  c #494237",
"P  c #47453E",
"I  c #514231",
"U  c #5A4D3C",
"Y  c #634429",
"T  c #6E4B2C",
"R  c #714D2D",
"E  c #65533F",
"W  c #2C3C43",
"Q  c #3E3F41",
"!  c #2F4249",
"~  c #3D4142",
"^  c #32444C",
"/  c #314650",
"(  c #364C55",
")  c #394D55",
"_  c #384E58",
"`  c #39515C",
"'  c #3D5661",
"]  c #3D5E6B",
"[  c #464C4C",
"{  c #4B4E4B",
"}  c #514C43",
"|  c #55534C",
" . c #405F6D",
".. c #446473",
"X. c #4A6773",
"o. c #4C6874",
"O. c #4E6A76",
"+. c #456A7A",
"@. c #466B7C",
"#. c #4E6E7B",
"$. c #486E7F",
"%. c #4C6D7D",
"&. c #506F7B",
"*. c #4A6F80",
"=. c #497183",
"-. c #497385",
";. c #4C7384",
":. c #4A7486",
">. c #4C7487",
",. c #4E7688",
"<. c #5F7B85",
"1. c #517688",
"2. c #537888",
"3. c #51798C",
"4. c #4E7C92",
"5. c #567F93",
"6. c #517E94",
"7. c #537F94",
"8. c #607C86",
"9. c #548095",
"0. c #548196",
"q. c #5D8393",
"w. c #578498",
"e. c #598BA3",
/* pixels */
"* * * 8 q q q = * * * * * @ * * * @ * @ * w r t r t e * * @ * * * * * * * @ * * = q q q 8 * e z ",
"w * s  .$.@.+.' c * # % % # % % # O # . q ] -.=.=.:.] q . o # % % # % # % # * c ' +.@.$. .r q v ",
"e % l >.q.8.<.O._ z s s s s s s c ! ! W ( >.3.$.$.3.>.( W ! ! c s s s s s s z _ O.<.8.q.>.l , v ",
"t * q _ { I I [ ` ( ( ( ( ( ( ( ..0.0.0.3...W = = W ..3.0.0.0...( ( ( ( ( ( ( ` [ I I { _ q q v ",
"t * 2 H h ; ; u s l l l l l s l b ^ ^ ! ` *.^     ^ *.` ! ^ ! b l s l l l l l s u ; ; h H : q v ",
"t * - C 4 # # # O O O O O O O O O X X   s 7...q q ..7.s   X X O O O O O O O O O # # # 4 C - 0 v ",
"t * : C 4 # # # # # # # # # # # # # O . s ,.>.` ` >.,.s . O # # # # # # # # # # # # # 4 C : 0 v ",
"e * : Z 5 # # # # # # # # # # # # # # O = b ..w.w...b = O # # # # # # # # # # # # # # 5 Z : q x ",
"0 * : Z 5 # # # # # # # # # # # # # # # O X W ;.;.W X O # # # # # # # # # # # # # # # 5 Z : * z ",
"r * : Z 5 # # # # # # # # # # # # # # # # # * q q * # # # # # # # # # # # # # # # # # 5 Z : q v ",
"t * : Z 5 # # # # # # # # # # # # # # # # # O X X O # # # # # # # # # # # # # # # # # 5 Z : q v ",
"t * : C 4 # # # # O O O # # # # # # # # # # # # # # # # # # # # # # # # O O O # # # # 4 C : q v ",
"t * : Z 5 # # # # % % % # # # # # # # # # # # # # # # # # # # # # # # # % % % # # # # 5 Z : q v ",
"t * : A C f f 6 m ' ..` p 4 f f f f f f f f f f f f f f f f f f f f 4 p ` ..' m 6 f f C A : q v ",
"t * & f V V V N P 2.e.%.g 4 V V V V V V V V V V V V V V V V V V V V 4 g %.e.2.P N V V V f & q v ",
"r * # & & & & $ s ' ..` q $ & & & & & & & & & & & & & & & & & & & & $ q ` ..' s $ & & & & # q x ",
"0 * & 6 V V V N L #.7.X.k 6 V V V V V V V V V V V V V V V V V V V V 6 k X.7.#.L N V V V 6 & * y ",
"r * 1 Y T K K D U &.4.O.J S K K K K K K K K K K K K K K K K K K K K S J O.4.&.U D K K T Y 2 0 v ",
"t * 3 Y C - - - 2 a s a & - - - - - - - - - - - - - - - - - - - - - - & a s a 2 - - - C Y 3 0 v ",
"t * 3 Y 6 + + + o X X X # # + + # + + + + + + + + + # # # # # + + + # # X X X o + + + 6 Y 3 0 v ",
"t * 3 Y 6 # # # # # # # # # # # # # # # # # # # # # # # # # # # # # # # # # # # # # # 6 Y 3 0 v ",
"t * 3 Y 6 # # # # # # # # # # # # # # # # # # # # # # # # # # # # # # # # # # # # # # 6 Y 3 0 v ",
"t * 3 Y 6 . O # # # # # # # # # # # # # # # # # # # # # # # # # # # # # # # # # O O . 6 Y 3 0 v ",
"r * 3 Y V 8 * % # # # # # O # # # # O O O O # # # # O O O O # # # # # # # # # # % * 8 V Y 3 0 v ",
"0 * 1 Y } / / s O O # # # # # # # # # O O O # # # # O O O # # # # # # # # # O O s / / } Y 1 * y ",
"r * 1 Y E | | ~ x x x x x x x x z W ( ` ` ` z X X z ` ` ` ( W z x c x x x x x x ~ | | E Y 1 0 v ",
"t * ; K T R T } _ _ _ _ _ _ _ _ ) ' 1.0.0.5.( * * ( 5.0.0.1.' ) _ _ _ _ _ _ ) ) } T R T K - q v ",
"t u > f G R R A n n n m m n n j j n M ~ Q Q ^ ^ ^ ^ Q Q ~ M n j j n n m m k j n A R R G f & q v ",
"t u > 4 S R T C 5 f V V V V B B B B 6 6 6 6 H [ [ H 6 6 6 6 B B B B V V V V f 5 C T R S 3 $ q v ",
"t u > 4 S R T S V A F F F F F F F F F F F F F F F F F F F F F F F F F F F F A V S T R S 4 $ q v ",
"t u > 4 S R T S V A F F F F F F F F F F F F F F F F F F F F F F F F F F F F A V S T R S 4 $ q v ",
"r u > 4 S R T S V A F F F F F F F F F F F F F F F F F F F F F F F F F F F F A V S T R S 4 $ q v ",
"0 : > 4 S R T S V A A A A F F A A A A A A A A A A A A A A A A A A F F F F F A V S T R S 4 $ , y ",
"r 9 > 4 S R T S h V V V V V V V f f f f f f f f f f f f f f f f V V V V V V V h S T R S 4 $ q x ",
"t u > 4 S R T S h V V V V V V V V f f f f f f f f f f f f f f V V V V V V V V h S T R S 4 $ q v ",
"t u > 4 S R T S V A F F F F F F F F F F F F F F F F F F F F F F F F F F F F A V S T R S 4 $ q v ",
"t u > 4 S R T S V A F F F F F F F F F F F F F F F F F F F F F F F F F F F F A V S T R S 4 $ q v ",
"t u > d F R R S V F F F F F F F F F F F F F F F F F F F F F F F F F F F F F F V S R R G 4 $ q v ",
"t u ; 4 S T T A h Z A A A A A A A A A A A A A A A A A A A A A A A A A A A A Z h A T T S 3 $ q v ",
"r r q & 5 C V 4 - : 2 2 2 2 2 2 2 2 2 2 2 2 2 2 2 : 2 2 2 2 2 2 2 2 2 2 2 2 2 - 4 V C 5 & * r v ",
"0 w w * 2 i i < * * * * * * * * * * * * * * * * * * * * * * * * * * * * * % % * = i i = % * r z ",
"e r r r y e y x x x x x x y x x x x x x x y x x x x x x x y x x x x x x z 0 w r r r r e e 7 r x ",
"t t t y x r x v v v v v v y x v v v v v v y x v v v v v v y x v v v v v v e r t t t t t t 0 y v ",
"t t r y x r x v v v v v x y x v v v v v x y x v v v v v x y x v v v v v x r r t t t t t r 0 t v ",
"e e e e r 0 t y y y y y y r t y y y y y y r t y y y y y y r t y y y y y y 0 w e w e e e e 7 y v ",
"w w w w r 7 r t r t t t r e r t t t t t r e r t t t t t r e r t t t t t r 7 0 w w w w w w * y v ",
"w w w w e 7 r t t t t t r e r t t t t t r e r t t t t t r e r t t t t t r 0 0 w w w w w w * y v ",
"* * * 7 0 * 0 e e e e e e w e e e e e e e w e e e e e e e w e e e e e e 0 * * 7 * * * * * * y v "
};
