/* XPM */
static char *_a6bca74ee5049cde6e6fb4c2a31fe8cGrMx6OkFqHnbIjU6[] = {
/* columns rows colors chars-per-pixel */
"48 48 152 2 ",
"   c #0F1B1C",
".  c #141615",
"X  c #171816",
"o  c #1B1A17",
"O  c #111C1D",
"+  c #1F1B18",
"@  c #240C0A",
"#  c #241616",
"$  c #231817",
"%  c #2B1816",
"&  c #281718",
"*  c #241B1C",
"=  c #2A1B1A",
"-  c #301F1A",
";  c #272119",
":  c #2E241C",
">  c #32231D",
",  c #362A1F",
"<  c #3B2A1C",
"1  c #131F21",
"2  c #152325",
"3  c #192526",
"4  c #172628",
"5  c #192729",
"6  c #1B2B2D",
"7  c #1D2E30",
"8  c #1E3133",
"9  c #212224",
"0  c #2D2423",
"q  c #2F2A21",
"w  c #212C2C",
"e  c #322521",
"r  c #372A23",
"t  c #3B2C22",
"y  c #372F2C",
"u  c #3F3123",
"i  c #36312D",
"p  c #3C382F",
"a  c #223334",
"s  c #223739",
"d  c #243B3D",
"f  c #363332",
"g  c #383737",
"h  c #3D3A32",
"j  c #34353C",
"k  c #3A3A3B",
"l  c #442E1F",
"z  c #43311E",
"x  c #402F24",
"c  c #433424",
"v  c #4B3624",
"b  c #493827",
"n  c #4B3826",
"m  c #443528",
"M  c #403A2E",
"N  c #4E3928",
"B  c #4D3A28",
"V  c #4E3B29",
"C  c #513726",
"Z  c #543B26",
"A  c #5C3E25",
"S  c #533D2A",
"D  c #553F2B",
"F  c #403D34",
"G  c #603E27",
"H  c #3F413B",
"J  c #5C4127",
"K  c #57402B",
"L  c #5B4229",
"P  c #59412B",
"I  c #5C422B",
"U  c #5A412C",
"Y  c #5D432C",
"T  c #5E432C",
"R  c #4A463D",
"E  c #584632",
"W  c #5B4833",
"Q  c #56493B",
"!  c #594939",
"~  c #6F4927",
"^  c #614229",
"/  c #60442B",
"(  c #64442A",
")  c #65462B",
"_  c #65472C",
"`  c #67482C",
"'  c #6D4A2B",
"]  c #6A492C",
"[  c #6A4A2C",
"{  c #6C4A2C",
"}  c #6F4C2C",
"|  c #704826",
" . c #714C2C",
".. c #724E2E",
"X. c #755130",
"o. c #7E5530",
"O. c #253B40",
"+. c #283F44",
"@. c #363D42",
"#. c #3D3F42",
"$. c #294349",
"%. c #3B4345",
"&. c #36454E",
"*. c #3A4449",
"=. c #364650",
"-. c #3B4751",
";. c #3A4C54",
":. c #394E59",
">. c #3D535C",
",. c #3D5763",
"<. c #414643",
"1. c #454A44",
"2. c #4A4C47",
"3. c #474E4A",
"4. c #494D4D",
"5. c #554F46",
"6. c #555046",
"7. c #495352",
"8. c #475558",
"9. c #46595E",
"0. c #49595E",
"q. c #535753",
"w. c #545854",
"e. c #64665E",
"r. c #475C61",
"t. c #445C6B",
"y. c #49626F",
"u. c #566668",
"i. c #466171",
"p. c #496270",
"a. c #4C6975",
"s. c #4B6C7B",
"d. c #4E707E",
"f. c #686C66",
"g. c #676D68",
"h. c #805631",
"j. c #8F5F34",
"k. c #905F34",
"l. c #926035",
"z. c #966336",
"x. c #996437",
"c. c #4D7283",
"v. c #517483",
"b. c #537A8D",
"n. c #547E93",
"m. c #558093",
"M. c #5A8192",
"N. c #5B8699",
"B. c #5B8A9E",
"V. c #63848F",
"C. c #668792",
"Z. c #5A8CA4",
/* pixels */
"O O O O O   O O O O O O O   O O O   O   O   O O O O O O O   O O O   O   O   O O O O O O O O 6 8 ",
"2 2 2 2 2 O 2 6 4 6 2 2 2 O 2 2 2 O 2 O 2 O 2 2 2 2 2 2 2 O 2 2 2 O 2 O 2 O 2 2 2 2 2 2 2 O 7 d ",
"4 4 4 4 2 O 2 6 6 6 6 4 2 O 2 4 2 1 2 1 2 O 2 4 4 4 4 4 2 O 2 4 4 1 2 2 2 O 2 4 2 2 2 4 2 O 8 d ",
"6 6 6 6 6 1 6 7 6 7 6 6 6 2 6 6 6 6 6 6 6 2 6 6 6 6 6 6 6 2 6 6 6 6 6 6 6 1 2 2 2 2 2 2 2 O 8 d ",
"7 7 7 7 6 4 6 7 7 7 7 7 6 4 6 7 7 7 7 7 6 4 6 7 7 7 7 7 7 4 6 7 7 7 7 7 6 2 2 4 2 2 4 2 2 O 8 d ",
"7 7 7 7 6 5 6 7 7 7 7 7 6 6 6 7 7 7 7 7 6 6 6 7 7 7 7 7 6 6 6 7 7 7 7 7 6 2 2 2 2 2 4 4 2 O 8 d ",
"7 7 7 7 6 5 6 7 7 7 7 7 7 6 6 7 7 7 7 7 7 5 6 8 7 7 7 7 7 6 6 7 6 7 7 7 6 2 2 4 4 4 4 4 2 O 8 d ",
"6 6 6 7 6 6 a s s s s s a 6 6 7 6 6 6 7 6 6 8 s s s s s a 6 6 6 6 6 6 6 6 2 2 6 6 6 6 6 6 2 7 d ",
"2 4 6 5 3 3 6 6 6 6 6 6 6 4 4 5 5 5 5 5 4 4 6 6 6 6 6 6 6 4 5 6 6 6 6 2 1 O O 2 1 1 O O O O 6 a ",
"6 6 6 9 * * 9 a a a a a 8 6 6 6 6 6 6 6 6 4 8 a a a a a a 6 8 a a a a 8 8 1 2 6 5 O . . O O 6 s ",
"7 6 9 t A A u 5 5 6 6 6 3 O 2 3 3 3 3 3 3 O 3 6 6 6 6 6 5 2 3 6 6 6 6 6 5 O O 2 3 r V v q O 7 d ",
"6 3 : ^ l.l.A o X o o o o o o o o o o o o o o o o o o o o o o o o o o o o o o . + ^ z.j.C o 7 d ",
"9 0 c ..z.z.` , t c c c c u u c u c c c u u u u u u u u u u u u u u u u u c c t , { x.z.[ u a d ",
"* > S X.l.l.[ c V U Y P K Y P D Y U D U Y Y Y Y Y Y Y Y Y Y Y Y Y Y Y Y Y Y U b m } l.k...V a d ",
"* > V X.l.l.[ c b I [ I P [ / P ` _ K _ { { { { { { { { { { { { { { { { { [ P m c } l.k...V a d ",
"* > V X.l.l.[ c b I { [ ) { [ ) { [ ) [ ..} } } } } } } } } } } } } ......{ I m c } l.k...V a d ",
"$ > V X.l.l.[ c b I { ....{ { { { { { { { { { { { { { { { { { { { { { [ [ _ P m c } l.k...V w 8 ",
"$ > V X.l.l.[ c b I { ....{ { { { { { { { { { { { { { { { { { { { ..[ P D D D m c } z.k...V a s ",
"* > V X.l.l.[ c b I { ..{ { { { { { { { { { { { { { { { { { { { { { [ / I I D m c } z.k...V a d ",
"* > V X.l.l.[ c b I { ..{ { { { { { { { { { { { { { { { { { { { { { { { ..[ P m c } l.k...V a d ",
"* > V X.l.l.[ c b I { } { { { { { { { { { { { { { { { { { { { { ' { { { ..{ P m c } l.k...V a d ",
"* > V X.l.l.) t m Y { ..} { { { ....{ { { { ....{ { { { ........' { { } ..{ I m t { z.l...V a d ",
"* - V X.l.l.G = x I [ ' ' ' ' ' ' ' ' ' ' ' ' ' ' ' ' ' ' ' ' ' ' ' ' ' ' [ P t - ) l.j.} V a d ",
"* = l ) o.o.C % < v Z A A A A A A A A A A A A A A A A A A A A A A A A A A Z v , % A h.o.J z a d ",
"$ 0 F W | | C 0 i p h R 6.6.5.5.5.5.5.5.5.5.5.6.6.5.5.5.6.5.5.5.5.5.6.6.R h p i e Z | ' E H a a ",
"# j v.e.~ | Q ;.:.;.:.s.M.M.M.M.M.M.M.M.M.M.M.M.M.M.M.M.M.M.M.M.M.M.M.M.a.:.;.:.;.! | ' e.v.O.a ",
"# @.Z.C.f.f.u.,.&.@.*.r.a.p.y.p.p.p.p.y.s.c.s.t.t.s.c.a.y.p.p.p.p.p.p.a.9.%.@.=.,.u.f.g.V.Z.$.d ",
"$ j b.B.N.N.d.:.i t u c u r r r r r r e k >.j & & @.>.g e r r r r r t u c u t f >.c.N.N.N.b.+.d ",
"* 0 #.7.w.w.2.h m b V b v v c c c v c < <.c.*.@ @ -.d.H < c v c c c v v b V b m h 2.w.q.4.%.s d ",
"* & - v A A v c V D S S S D D D D D S z 7.B.t.0 0 i.N.3.z S D D D D D S S S D b c v A A l : a d ",
"* & > C ' ' Z c b D S S S S S S S D S z 3.M.s.:.:.c.m.1.z S D S S S S S S S S b c A ' ' v > a d ",
"* & > Z ....A c b D S S S S S S D D S c F 8.d.m.n.s.7.M c S D D S S S S S D D b c P ....C e a d ",
"* & > Z ....A u m V V V V V V V V V b u < t 0.n.n.8.< < c b V V V V V V V V V m c P ..} C e w a ",
"$ & > Z ....A u u c c c c c c u t t r e > > i k k y > > r t t t u c c c c c c u u P ..} C > 6 a ",
"* & > Z ....A u c m m m m m m m c t t x x x t < < t x x x t t c m m m m m m m c c P ..} C e a d ",
"* & > Z ....A c b S S S S S S S S S S S S S S S S S S S S S S S S S S S S S S b c P ..} C e a d ",
"* & > Z ....Z c b D S S S S S S S S S S S S S S S S S S S S S S S S S S S S D b c P ..} C e a d ",
"* & e D ....P c V D D D D D D D D D D D D D D D D D D D D D D D D D D D D D D b c I ....C e a d ",
"* = e S { } Z u b S S S S S S S S S S S S S S S S S S S S S S S S S S S S S S m u P ..{ v 0 a d ",
"w 9 * t v v < ; ; : : : : : : : : : : : : : : : : : : : : : : : : : : : : : : ; ; t v v , * 8 d ",
"5 2 X * 0 0 * . . . . . . . . . . . . . . . . . . . . . . . . . . . . . . . . . . * e 0 + . 6 s ",
"2 4 5 5 5 5 6 7 7 7 7 7 7 6 6 7 7 7 7 7 7 6 6 7 7 7 7 7 7 6 6 7 7 7 7 7 6 O 2 5 5 5 5 3 1 O 6 a ",
"7 7 7 8 a 6 s d d d d d s 8 s d d d d d s 8 s d d d d d d 8 s d d d d d s 2 6 7 6 6 6 7 6 2 7 d ",
"7 7 7 8 s 6 s d d d d d d 8 s d d d d d d 8 s d d d d d d 8 s d d d d d d 6 6 7 7 6 7 7 7 2 7 d ",
"6 6 6 6 8 5 a s s s s s s 7 a s s s s s s 7 a s s s s s s 7 a s s s s s s 6 6 6 6 6 6 6 6 2 8 d ",
"2 2 2 4 6 2 6 7 7 7 7 7 6 6 6 7 7 7 7 7 7 6 6 7 7 7 7 7 7 6 6 7 7 7 7 7 6 2 2 4 2 2 2 2 2 O 8 d ",
"2 2 2 4 6 1 6 7 7 7 7 7 6 5 6 7 7 7 7 7 6 5 6 7 7 7 7 7 7 5 6 7 7 7 7 7 6 2 2 4 2 2 2 2 2 O 8 d ",
"2 2 2 2 5 1 6 6 6 6 6 6 6 4 6 6 6 6 6 6 6 4 6 6 6 6 6 6 6 5 6 6 6 6 6 6 6 1 2 2 2 2 2 2 2 O 8 d "
};
