/* XPM */
static char *_2d1284b0f724b9faef8307bfde822ac4urK0cNRfdfHincf[] = {
/* columns rows colors chars-per-pixel */
"48 48 130 2 ",
"   c #0F0D0A",
".  c #110F0C",
"X  c #1B0F0E",
"o  c #12110E",
"O  c #141412",
"+  c #1C1513",
"@  c #1E1A15",
"#  c #191B1C",
"$  c #211615",
"%  c #291616",
"&  c #211B16",
"*  c #291817",
"=  c #291718",
"-  c #231A1A",
";  c #2A1818",
":  c #2D241C",
">  c #31221B",
",  c #38271E",
"<  c #35281D",
"1  c #392A1D",
"2  c #1B1D20",
"3  c #271E22",
"4  c #281F24",
"5  c #1C2122",
"6  c #1F252A",
"7  c #282025",
"8  c #262827",
"9  c #20242C",
"0  c #292D2D",
"q  c #342620",
"w  c #362821",
"e  c #3B2B22",
"r  c #342D2C",
"t  c #222730",
"y  c #242E30",
"u  c #2E2F33",
"i  c #362F32",
"p  c #273134",
"a  c #293336",
"s  c #28363B",
"d  c #34393E",
"f  c #3F3C3C",
"g  c #412D1F",
"h  c #412E22",
"j  c #443224",
"k  c #493522",
"l  c #4A3827",
"z  c #4A3728",
"x  c #45392F",
"c  c #4E3A2B",
"v  c #513723",
"b  c #533B26",
"n  c #5A3E26",
"m  c #533E2C",
"M  c #5A3E28",
"N  c #403C3A",
"B  c #57412F",
"V  c #5A422C",
"C  c #41403E",
"Z  c #4D463C",
"A  c #574130",
"S  c #5D4633",
"D  c #5F4834",
"F  c #684527",
"G  c #634429",
"H  c #68472B",
"J  c #6A492B",
"K  c #724E2D",
"L  c #78522F",
"P  c #2F3D43",
"I  c #32434A",
"U  c #4D4B44",
"Y  c #43454C",
"T  c #574E42",
"R  c #56534A",
"E  c #474D55",
"W  c #4A5354",
"Q  c #44555B",
"!  c #445A65",
"~  c #4A5E66",
"^  c #425E6A",
"/  c #41606D",
"(  c #456574",
")  c #4D6570",
"_  c #536A74",
"`  c #596C79",
"'  c #5E757B",
"]  c #487081",
"[  c #4B7283",
"{  c #5E7583",
"}  c #5E7684",
"|  c #5E7983",
" . c #527A8B",
".. c #547B8C",
"X. c #557F92",
"o. c #568193",
"O. c #57879E",
"+. c #5B879A",
"@. c #5E879A",
"#. c #58889E",
"$. c #64818C",
"%. c #678490",
"&. c #698691",
"*. c #6A8892",
"=. c #5D8BA0",
"-. c #5E94AD",
";. c #5F95AE",
":. c #6892A5",
">. c #6995A8",
",. c #6D99AD",
"<. c #619AB4",
"1. c #649DB7",
"2. c #6B9DB3",
"3. c #71A2B6",
"4. c #74A7BD",
"5. c #75A9BF",
"6. c #70A9C3",
"7. c #76AAC1",
"8. c #7AB1C8",
"9. c #7EB3C9",
"0. c #81BDD7",
"q. c #89C7E2",
"w. c #8DCCE7",
"e. c #8FCDE8",
"r. c #90CEE9",
"t. c #91D0EB",
"y. c #92D2EE",
"u. c #94D5F1",
"i. c #96D7F4",
"p. c #97D8F5",
/* pixels */
"S S S S S S S S S S S S S S S S S S S S S S S S S S S S S S S S S S S S S S S S S S S S S D c h ",
"S S S S S S S S S S S S S S S S S S S S S S S S S S S S S S S S S S S S S S S S S S S S S S S m ",
"S S S S D D D D D D D D D D D D D D D D D D D D D D D D D D D D D D D D D D D D D D D S S S S m ",
"S S S S m c m m m m m m m m m c c c m m m m m m m m m m m c c c m m m m m m m m m c B D S S S m ",
"S S S V G M e b G G G G G G G G G G G G G G G G G G G G G G G G G G G G G G M e b G M B S S S m ",
"S D B k K H h M K K K K K K K K K K K K K K K K K K K K K K K K K K K K K K G e V L v j D S S m ",
"S D B g b l e h k k k k k k k k k k k k k k k k k k k k k k k k k k k k k k j e l M g h D S S m ",
"S D A e h e : + O O O O O O O O O O O O O O O O O O O O O O O O O O O O O O O : e e , z D S S m ",
"S D A b J G & O O O O O O O O O O O O O O O O O O O O O O O O O O O O O O O O + j m z c S S S m ",
"S D A b K G & + * + O O O O O O O O O O O O O O O O O O O O O O O O O O O O O O j B l c S S S m ",
"S D A l V b & + ; $ O O O O O O O O O O O O O O O O O O O O O O O O O O O O O + j B z z D S S m ",
"S D A l G M & + ; $ O O O O O O O O O O O O O O O O O O O O O O O O O O O O O + j B j l D S S m ",
"S D A b F n & X % $ O O O O O O O O O O O O O O O O O O O O O O O O O O O O O O j B z c S S S m ",
"S D A x T Z 8 u r $ O O O O O O O O O O O O O O O O O O O O O O O O O O O O O O j B l c S S S m ",
"S D B W +...! :._ + O O O O O O O O O O O O O O O O O O O O O O O O O O O O O O j V z z D S S m ",
"S D m W ;.O.( 5.} + O O O O O O O O O O O O O O O O O O O O O O O O O O O O O O j B j z D S S m ",
"S D m W ;.#.( 5.{ + O O O O O O O O O O O O O O O O O O O O O O O O O O O O o # Q ' W c S S S m ",
"S D B C ) ! I _ E $ O O O O O O O O O O O O O O O O O O O O O O O O O O O O o # [ <.) c S S S m ",
"S D A e e w @ $ ; $ O O O O O O O O O O O O O O O O O O O O O O O O O O O O o #  .6._ c S S S m ",
"S D A j m l @ + % - O O O O O O O O O O O O O O O O O O O O O O O O O O O O . # >.y.$.c S S S m ",
"S D B j M l & + * 3 6 O O O O O O O O O O O O O O O O O O O O O O O O O O O o 5 ,.i.*.c S S S m ",
"S D B j M l & + % 7 t O O O O O O O O O O O O O O O O O O O O O O O O O O o # / 8.y.*.c S S S m ",
"S D B j M l & + ; - 2 O O O O O O O O O O O O O O O O O O O O O O O O O O . y 2.q.r.&.c S D D m ",
"S D B j m l & + ; $ O O O O O O O O O O O O O O O O O O O O O O O O O O O   a 9.r.e.$.c D D D m ",
"S D B j M l & + ; - O O O O O O O O O O O O O O O O O O O O O O O O O O O   p 7.w.r.&.c S S S m ",
"S D B j M l & + * 3 9 O O O O O O O O O O O O O O O O O O O O O O O O O O . 6 o.0.t.*.c S S S m ",
"S D B j M l & + % 4 t O O O O O O O O O O O O O O O O O O O O O O O O O O O O s 3.u.&.c S S S m ",
"S D B j m l @ + ; - # O O O O O O O O O O O O O O O O O O O O O O O O O O O . # ,.p.%.c S S S m ",
"S D B j b k @ X % $ O O O O O O O O O O O O O O O O O O O O O O O O O O O O o # @.0.| c S S S m ",
"S D B x R U 0 d i $ O O O O O O O O O O O O O O O O O O O O O O O O O O O O o # [ 1._ c S S S m ",
"S D m W =.X.^ ,.` + O O O O O O O O O O O O O O O O O O O O O O O O O O O O o # ( =.~ c S S S m ",
"S D m W ;.O.( 5.{ + O O O O O O O O O O O O O O O O O O O O O O O O O O O O O O r f r z D S S m ",
"S D m W ;.O.( 4.{ + O O O O O O O O O O O O O O O O O O O O O O O O O O O O O O 1 k 1 j D S S m ",
"S D B N ! Q P ~ Y $ O O O O O O O O O O O O O O O O O O O O O O O O O O O O O + j B j j D S S m ",
"S D B 1 e , + + % $ O O O O O O O O O O O O O O O O O O O O O O O O O O O O O + j B j j D S S m ",
"S D A j m l @ + = $ O O O O O O O O O O O O O O O O O O O O O O O O O O O O O + j B j j D S S m ",
"S D B j M l @ + ; $ O O O O O O O O O O O O O O O O O O O O O O O O O O O O O O j B j j D S S m ",
"S D B j M l @ + ; $ O O O O O O O O O O O O O O O O O O O O O O O O O O O O O + j B j j D S S m ",
"S D B e e e : + + O O O O O O O O O O O O O O O O O O O O O O O O O O O O O O - e j 1 j D S S m ",
"S D A h l j e < 1 < 1 1 1 1 1 1 1 1 > < < > < > : : : : : : : : : : : : : : : q e j , j D S S m ",
"S D B v K G h M K K K K K K K K K J V G H V J V m m m m m m m m m m m m m M c e z B j j D S S m ",
"S D B k H G e b J H H H H H H H H G M V V M G M c c c c c c c c c c c c c m l e z m h j D S S m ",
"S D A e e e q e e e e e e e e e e e e e e e e e w e e e e e e e e e e w e e w q w e , j D S S m ",
"S S S c , > > > > > > > > > > > > > > > > > > > > > > > > > > > > > > > > > > > > > h A S S S m ",
"S S S S m c c c c c c c c c c c c c c c c c c c c c c c c c c c c c c c c c c c c c B D S S S m ",
"S S S S D D D D D D D D D D D D D D D D D D D D D D D D D D D D D D D D D D D D D D S S S S S m ",
"S S S S S S S S S S S S S S S S S S S S S S S S S S S S S S S S S S S S S S S S S S S S S S S m ",
"S S S S S S S S S S S S S S S S S S S S S S S S S S S S S S S S S S S S S S S S S S S S S D c e "
};
