/* XPM */
static char *fbda5ac1cad645188c635a0d902601ea0zZETOma5KerLv8W[] = {
/* columns rows colors chars-per-pixel */
"48 48 152 2 ",
"   c #0C0704",
".  c #0C0807",
"X  c #0E0E0C",
"o  c #140F0C",
"O  c #0F100E",
"+  c #12100E",
"@  c #18120F",
"#  c #0F1110",
"$  c #141312",
"%  c #1A1514",
"&  c #1C1915",
"*  c #191C1C",
"=  c #231515",
"-  c #281616",
";  c #261D17",
":  c #2B1916",
">  c #251B19",
",  c #2B1C1A",
"<  c #301F1D",
"1  c #2C2117",
"2  c #26201B",
"3  c #2D221C",
"4  c #31231E",
"5  c #38271D",
"6  c #33281D",
"7  c #3B2A1E",
"8  c #1B2123",
"9  c #1D2628",
"0  c #252525",
"q  c #2D2224",
"w  c #2B2A2E",
"e  c #332520",
"r  c #372923",
"t  c #392A22",
"y  c #212C30",
"u  c #2C2F34",
"i  c #273135",
"p  c #29373C",
"a  c #323334",
"s  c #3A3636",
"d  c #3D3837",
"f  c #34353A",
"g  c #343B3D",
"h  c #3E3B3C",
"j  c #412E23",
"k  c #443324",
"l  c #4A3525",
"z  c #4D3826",
"x  c #45362A",
"c  c #493728",
"v  c #4C3A2A",
"b  c #503723",
"n  c #523924",
"m  c #593E25",
"M  c #523C2B",
"N  c #5B3F28",
"B  c #4A3C31",
"V  c #503E31",
"C  c #56402D",
"Z  c #5B422C",
"A  c #4D443B",
"S  c #4F493F",
"D  c #574130",
"F  c #5D4633",
"G  c #5F4834",
"H  c #58493B",
"J  c #614329",
"K  c #634529",
"L  c #644529",
"P  c #64472D",
"I  c #66482D",
"U  c #6C492B",
"Y  c #6D4B2C",
"T  c #714D2D",
"R  c #744F2E",
"E  c #76502E",
"W  c #2D3B41",
"Q  c #373B41",
"!  c #373F41",
"~  c #393D45",
"^  c #32454C",
"/  c #3B434A",
"(  c #3C484E",
")  c #344952",
"_  c #364F59",
"`  c #36515B",
"'  c #3B515B",
"]  c #3A535F",
"[  c #3D5662",
"{  c #3E5C69",
"}  c #474946",
"|  c #4E4D46",
" . c #4B4E4A",
".. c #524B43",
"X. c #574B40",
"o. c #524E4A",
"O. c #5F574C",
"+. c #434E53",
"@. c #525756",
"#. c #5D5A52",
"$. c #595C5A",
"%. c #625E56",
"&. c #5A615E",
"*. c #62645F",
"=. c #445760",
"-. c #415B68",
";. c #415F6D",
":. c #485F6A",
">. c #40606E",
",. c #49606C",
"<. c #4C646F",
"1. c #586364",
"2. c #446270",
"3. c #446573",
"4. c #446675",
"5. c #4E6976",
"6. c #476B7B",
"7. c #476C7C",
"8. c #496B7B",
"9. c #4B6B7A",
"0. c #496D7D",
"q. c #5C6D70",
"w. c #506C7A",
"e. c #4C6F83",
"r. c #4D7384",
"t. c #4F798C",
"y. c #537482",
"u. c #537584",
"i. c #53798B",
"p. c #547E92",
"a. c #557F92",
"s. c #5A8294",
"d. c #56859A",
"f. c #5A879C",
"g. c #5F889A",
"h. c #668C9C",
"j. c #5C8DA4",
"k. c #5D8FA6",
"l. c #5F94AC",
"z. c #5E95AF",
"x. c #6096AF",
"c. c #6897AB",
"v. c #6299B2",
"b. c #6D9FB6",
"n. c #6EA2B9",
"m. c #75ACC5",
"M. c #84B7CC",
"N. c #84B8CE",
"B. c #87C2DC",
"V. c #8FCDE8",
"C. c #90CFEA",
"Z. c #92D1ED",
/* pixels */
"F F F F F F F F F F F F F F F F F F F F F F F F F F F F F F F F F F F F F F F F F F F F F F l j ",
"F F F F F F F F F F F F F F F F F F F F F F F F F F F F F F F F F F F F F F F F F F F F F F F v ",
"F F F G G G G G G G G G G G G G G G G G G G G G G G G G G G G G G G G G G G G G G G F F F F F c ",
"F F G C v v M M M M M M M v v v v v M M M M M v v v v v v v v v M M M M M M M M v v F G F F F l ",
"F F D M 5 7 b n n n n n n b l l l l n n n n n b l b l b l l l l b n n n n n b t 7 l Z F F F F v ",
"F G l L l l T R T T T T T T T T T T T T T T T T T T T T T T T T T T T T T R Y k z E U C G F F v ",
"F G k N k k K L L L L L L L L L L L L L L L L L L L L L L L L L L L L L L L J j l Y J C G F F v ",
"F G l t t 3 ; ; ; ; ; ; ; ; ; ; ; ; ; ; ; ; ; ; ; ; ; ; ; ; ; ; ; ; ; ; ; ; 2 3 t j j M G F F l ",
"F G v z 6 % # # # # # # $ # # # # # # # # $ # # # # # # # # $ # # # # # # # $ & 4 k x } X.F F v ",
"F F M L 7 # $ % % % % % $ % % % % % % % % $ % % % % % % % % $ $ % % % % % % % $ 6 M M ! A F F v ",
"F G v J 6 $ $ - - - - - % & - - - - - - - % & - - - - - - - % & - - - - - - - % 6 C v 3 x G F c ",
"F G l n 3 $ $ - - - - - % & - - - - - - - % & - - - - - - - % & - - - - - - - % 6 C M v D F F l ",
"F G v Z 6 $ $ - - , 4 3 % > 4 4 3 3 3 4 , % > 4 4 3 3 3 , - % > 4 4 3 3 3 4 , % 6 C M C G F F c ",
"F F v N 4 X o = - , e , % > e e e e e e 4 > , e e e e 4 , - % > e e e e e e 4 & 4 C M C F F F v ",
"F F v S a 9 i a q , e , % > e e e e e e 4 - , e e e e 3 , - % > e e e e e e 4 & 6 C M C G F F c ",
"F F B u.2.;.d.a.g : e 3 % > e e e e e e 4 - , e e e e e 4 - % > e e e e e e 4 & 4 M M M G F F l ",
"F F B a.0.8.x.k.~ : 4 - % > e e e e e e 4 - , e e e e 4 - - % > e e e e e e 4 & 4 M M C G F F c ",
"F F B a.0.8.x.k.~ : 4 , % > e e e e e e 4 , , e e e e 4 , - % > e e e e e e 4 % g q.1.H F F F v ",
"F F c ,.' _ 6.4.u : e 4 & > e e e e e e e , 3 e e e e e 4 , % > e e e e e e 4 % _ z.f.@.H F F v ",
"F G k r 2 % * * % > e 4 & > e e e e e e e , 3 e e e e e e 3 % > e e e 4 4 4 4 & [ v.k.-.S F F l ",
"F G l k 1 O + = = , e 4 - , e e e e e e 4 - 3 e e e e e 4 - % > e e e e e 4 e g s.B.m.^ x G F c ",
"F G l z 3 $ $ - - , e 4 , , e e e e e e 4 - , e e e e e 4 - = , e 4 e +.=.( :.r.n.Z.N. .M G F v ",
"F G l z 3 $ $ - - , e 4 - , e e e e e e 4 - , e e e e e 4 , - , e 4 e 5.a.4.k.v.m.C.M.%.F F F v ",
"F G l z 3 $ $ - - , e 4 & > e e e e e e 4 - , e e e e e e 4 - , e 4 e 5.r.] r.t.b.C.M.%.F F F l ",
"F G l z 3 $ $ - - , e 4 - 3 e e e e e e 4 , 3 e e e e e 4 - - , e 4 e 5.3.* * 8 y.Z.N.%.F F F c ",
"F G l z 3 $ $ - - , e 4 , 3 e e e e e e 4 , 3 e e e e e 4 - - , e 4 e w.>.+   . 5.Z.N.%.F F F v ",
"F G l z 3 $ $ - - , e 4 , 3 e e e e e e 4 - , e e e e e 4 , - , e 4 e 5.7.p ^ ) g.Z.N.%.F F F v ",
"F G l z 3 $ $ - - , e 4 , 3 e e e e e e 4 - , e e e e e e 4 - , e 4 e 5.i.2.k.z.m.C.M.%.F F F l ",
"F G l z 3 $ $ - - , e e - , e e e e e e 4 - , e e e e e e , - 3 e 4 e <.r.-.a.k.m.C.N.*.G F F c ",
"F G l z 3 $ $ - - , e e - , e e e e e e 4 & > e e e e e e 3 - 3 e 4 e s f w f [ c.V.B.h.#.F F v ",
"F G l l 1 X o = - 3 e 4 - , e e e e e 4 , % > e e e e e e e , , e e e 4 : = = 0 8.m.n.e.o.F F v ",
"F G c | g y W Q q , e 4 - , e e e e e 4 , % > e e e e e e 4 - , e e e e 4 , : @ ` v.f./ B F F c ",
"F F B i.4.3.k.d.Q : e 4 - , e e e e e e 3 % > e e e e e e 4 , 3 e e e e e e 4 % ) f.i...F F F c ",
"F F B a.0.8.z.k.~ : e 4 - , e e e e e 4 - % > e e e e e e 4 , 3 e e e e e e 4 & 0 h d V G F F v ",
"F F B a.0.8.z.k.~ : e 4 , , e e e e e e , % > e e e e e e 4 - , e e e e e e 4 & 1 k j M G F F v ",
"F F c =.) ^ >.{ w - e 4 , , e e e e e e , % > e e e e e e 4 - , e e e e e e 4 & 6 C M M G F F c ",
"F G k r > $ $ % $ > e 4 , , e e e e e 4 - % > e e e e e e 4 - , e e e e e e 4 & 6 C M M G F F c ",
"F G l l 1 + $ = - , e 4 , , e e e e e e 3 % > e e e e e e 4 & > e e e e e e 4 & 4 C M M G F F v ",
"F G l z 3 $ $ - - , e 4 > , e e e e e 4 , % > e e e e e e 4 & > e e e e e e 4 & 6 C M M G F F v ",
"F G l z 3 $ % - - , e 4 & > 4 , , , 3 , - % > e e e e e e 4 & > < , , , , 4 , % 6 M D &.O.F F c ",
"F G l k 3 $ $ & = - 2 > $ % = = = = = = & $ & 2 , , , , 2 > % % = = = = = = = & 4 l B w.$.F F l ",
"F G k t e , & & & & & & & & & & & & & & & & & & & & & & & & & % & & & & & % & 2 e t r f A F F v ",
"F G l m k j N N N N m N N N N N m l z n l n z k k k k k k k k k k k k k k k k t t v l x D F F v ",
"F G M U l l R E R E E E R R R E R Z P Y Z Y I C C C C C C C C C C C C C C C M t k C M C G F F c ",
"F F F N j j N N N N N N N N N N N z n M z M n l l l l l l l l l l l l l l l l t t c v D F F F l ",
"F F F t t t t t t t t t t t t t t t t t t t t t t t t t t t t t t t t t t t t r t t t C F F F v ",
"F F F D D D D D D D D D D D D D D D D D D D D D D D D D D D D D D D D D D D D D D D D F F F F v ",
"F F F F F F F F F F F F F F F F F F F F F F F F F F F F F F F F F F F F F F F F F F F F F F C c "
};
