/* XPM */
static char *_0b13d4c677b4a488e05ca8c23689e854LGPTg2RAu8rk5BM[] = {
/* columns rows colors chars-per-pixel */
"40 40 181 2 ",
"   c #02040C",
".  c #060A0E",
"X  c #0A0C0D",
"o  c #130D0E",
"O  c #1F100F",
"+  c #000512",
"@  c #020915",
"#  c #0A0D13",
"$  c #010D1C",
"%  c #0B0E19",
"&  c #160D11",
"*  c #180D11",
"=  c #0C1214",
"-  c #04111F",
";  c #0E1719",
":  c #0F1A1B",
">  c #141314",
",  c #1A1514",
"<  c #12151B",
"1  c #1D141A",
"2  c #121C1D",
"3  c #1C1B1B",
"4  c #2F0F0D",
"5  c #310F0D",
"6  c #2C110F",
"7  c #34110E",
"8  c #3B120F",
"9  c #351C0F",
"0  c #280F10",
"q  c #251314",
"w  c #2C1413",
"e  c #25171D",
"r  c #2C161A",
"t  c #231C1C",
"y  c #2A1B1E",
"u  c #331413",
"i  c #3B1412",
"p  c #341915",
"a  c #3E1B14",
"s  c #31171A",
"d  c #321B1A",
"f  c #3A1B1C",
"g  c #2B201B",
"h  c #3D2311",
"j  c #021323",
"k  c #0A1622",
"l  c #031827",
"z  c #0A1826",
"x  c #011728",
"c  c #011A2B",
"v  c #121F20",
"b  c #1D1D22",
"n  c #021E31",
"m  c #201F21",
"M  c #2A1B22",
"N  c #152325",
"B  c #1B2426",
"V  c #162529",
"C  c #192729",
"Z  c #1A2B2D",
"A  c #022435",
"S  c #022739",
"D  c #03293C",
"F  c #122935",
"G  c #1D2E30",
"H  c #112C39",
"J  c #1E3133",
"K  c #232223",
"L  c #292127",
"P  c #2D2827",
"I  c #232529",
"U  c #2E262E",
"Y  c #222B2C",
"T  c #2B2C2D",
"R  c #312323",
"E  c #3F2220",
"W  c #32242A",
"Q  c #342A2E",
"!  c #3B2A2D",
"~  c #3F312E",
"^  c #252D36",
"/  c #322D33",
"(  c #213335",
")  c #223638",
"_  c #2C3139",
"`  c #243A3C",
"'  c #343232",
"]  c #3B3534",
"[  c #34343C",
"{  c #393239",
"}  c #36383D",
"|  c #393A3D",
" . c #431612",
".. c #441A14",
"X. c #4B1B15",
"o. c #451D19",
"O. c #4C1E19",
"+. c #511F16",
"@. c #511F18",
"#. c #432214",
"$. c #4C2117",
"%. c #422814",
"&. c #4A2B16",
"*. c #45211C",
"=. c #4F2018",
"-. c #4E2E18",
";. c #54221A",
":. c #59241B",
">. c #532A1A",
",. c #4F3118",
"<. c #57351C",
"1. c #58371C",
"2. c #432523",
"3. c #472825",
"4. c #502822",
"5. c #49312D",
"6. c #5F3C20",
"7. c #5E342D",
"8. c #443731",
"9. c #463A39",
"0. c #543933",
"q. c #5A3A34",
"w. c #58433C",
"e. c #2D3D46",
"r. c #363C42",
"t. c #373D44",
"y. c #393D43",
"u. c #443D42",
"i. c #2D424D",
"p. c #3E4548",
"a. c #4B4343",
"s. c #44474A",
"d. c #4B454A",
"f. c #45494C",
"g. c #504646",
"h. c #524C4E",
"j. c #5A524E",
"k. c #474E52",
"l. c #4C4E52",
"z. c #514B50",
"x. c #4C5255",
"c. c #585253",
"v. c #55595B",
"b. c #5C5B5C",
"n. c #624E46",
"m. c #684943",
"M. c #62554E",
"N. c #74574E",
"B. c #675958",
"V. c #745B52",
"C. c #70615B",
"Z. c #7F665E",
"A. c #585E61",
"S. c #636363",
"D. c #686767",
"F. c #6B6C6E",
"G. c #6C6C6D",
"H. c #776C6B",
"J. c #786F6D",
"K. c #6E6F70",
"L. c #6E7071",
"P. c #727374",
"I. c #767A7C",
"U. c #7C7C7C",
"Y. c #7E7E7E",
"T. c #906050",
"R. c #9A6959",
"E. c #816760",
"W. c #9A7363",
"Q. c #8A7D76",
"!. c #B88D7C",
"~. c #7E8082",
"^. c #858585",
"/. c #8D8887",
"(. c #A7968E",
"). c #AF988E",
"_. c #B59180",
"`. c #C69B88",
"'. c #C5AB9F",
"]. c #CEB0A1",
"[. c #D9BDAE",
/* pixels */
"N N N N N 2 2 N N N N N 2 2 2 = . .         . . = = 2 N v 2 2 2 2 2 N N N N v 2 ",
"V V V V V N N Z Z Z V V 2 2 =           +         . ; N V v N v N N V V V V N 2 ",
"V Z Z Z Z N V Z Z Z Z Z 2 =     + +   + + +         . 2 Z Z Z Z V N V V V V N 2 ",
"V Z G G Z Z Z Z G G G Z 2     + + @ @ $ $ + + + + +   # N Z G G V N V V V V N 2 ",
"Z Z G G Z Z Z G G G G Z =   + @ $ j c n c $ @ $ - @     ; Z G G V N V V V V V v ",
"Z Z G G G Z Z ( ( ( ( Z # + $ j c A S D S x @ $ c $ + + # V Z G V N Z Z Z Z Z N ",
"v N C Z Z C Z G G G G V # @ j x c D D A A c $ j c $ + + . N Z V v 2 N N N N N 2 ",
"N V Z Z Z Z Z J J J J C < = k l c D S A A A j x c $ % < < C J J V N C C C C C N ",
"Z Z G G J J J ` ` ` ( B T | y.^ F H F H H H V V G t.y.} K Z ` ` Z V G G G G Z N ",
"V Z G G J J J ` ` ` Z m a.S.P.D.v.x.k.k.k.p.f.x.A.P.F.s.B Z ` ` J Z G G G G Z N ",
"V Z G G J J J ` ` ` Z P n.a.l.F.Y.P.S.F.G.v.S.L.F.l.| K = Z ` ` J Z G G G G Z N ",
"V Z G G J J J ` ` ` G P w.t < ^ } r.s.b.b.b.f.t._ v #   . Z ` ` J Z G G G G Z N ",
"V Z Z Z J G J ` ` ` G 3 t X   @ $ z e.D.G.K.r.k @ +     # Z ` ` J Z Z Z Z Z Z N ",
"2 N V Z Z Z Z J J J Z < .     + @ l i.I.Y.Y.r.- +   +   # C J J Z Z Z Z Z V N 2 ",
": V Z Z Z Z G ` ` ` ( b & o & % @ - e.~.^.Y.r.k % & * o > Z ) ` J G G Z Z Z Z N ",
"2 C G G G Z J ` ` ) T d u 5 u r 1 % [ ^.^.I.| b e u 4 7 u K ( ` J J J G G G Z N ",
"N Z G G G Z J ` ` Y d X.X. . .o.i r 9.^.Y.B.! f ....8  .X.a K ) J J J G G G Z N ",
"N Z G G G Z J ` ( K a ;.:.;.X.O.O.o.w./.J.q.O.X.O...8 @.:.:.d Y G J J G G G Z N ",
"V Z G G G Z J ` Y p X.:.:.;. . . ...q.H.B.4.X. . .8  .;.:.:.a K Z Z J G G G Z N ",
"N C Z Z Z Z G ( K i +.:.;.@.X... .i o.5.3. .8  .....X.O.;.:...y B Z G Z Z Z Z N ",
"v N V Z Z Z Z Z y ..:.;.O.X.@.;.;.X.O.O.O.O.X.O.;.@.O.X.@.:.X.s 3 N Z Z Z V N 2 ",
"V Z Z Z J G J Y s ..:.;. ...;.;.;.;.:.:.;.:.;.;.:.;.@. .X.:.O.i t B G Z Z Z Z N ",
"V Z Z Z J J J Y s X.:.;. . .=.;.:.;.:.:.:.:.;.;.;.;.X.i  .;.O.i t C G G G G Z N ",
"V Z G Z J J J Y r ..;.X.i p #.=.=.;.:.:.:.:.;.;.=.$.a 8  .;.X.i t C G G G G Z N ",
"V Z Z Z J J J Y r f 2.u w w 9 a ..$.>.>.>.>.$.#...h a 7 u E f w t C G G G G Z N ",
"V Z Z G J J J Z L g.j.Q e q 9 h %.,.1.6.1.,.%.h h h ..u W h.a.W b C G G G G Z N ",
"N V Z Z Z Z G Z L h.S.d.U q ..#.%.&.-.<.-.&.h h #.#.*.W u.D.c.Q b V Z Z Z Z V v ",
": N Z Z Z Z Z Z b { h.z.{ r O.;.;.X.X.;.:.;.o.=.;.;.*.Q d.b.u.L v C Z Z Z C N v ",
"2 V G G G Z J ) Z I / / M u O.;.;. . .;.;.;. .+.;.;.O.y U { T C Z J J G G G Z N ",
"N Z G G G Z J ` ) G B 1 0 i ..X. .8 8  .X. .8 X.;.@.O.i q B Z ( J J J G G G Z N ",
"v Z G G G Z J ` ` ` ) C , 6 u u w q q 6 6 6 w i  . . .7 q Y ) ` J J J G G G Z N ",
"V Z G G G Z J ` ` ` ` Z > t t t 1 , o 3 3 o & q 6 u w O b ) ` ` G G J G G G Z N ",
"V Z G G G Z J ` ` ` ` J 3 K K 3 3 > X 2 C X X , 3 t t , B ) ` ` Z Z J G G G Z N ",
"v N C Z Z C Z J ( ( ) Z 3 t t 3 3 > X 2 V X X > 3 K t 3 B J ) J V V Z Z Z C N 2 ",
"N V Z Z Z Z Z ) ) ) ) G R 7.q.] t o . 2 V X . > P 8.7.3.I J ) ) Z V Z Z Z Z B N ",
"V Z Z Z J J J ` ` ` ` ( ~ T.!.(.M.g # N Z = O 8.Q.).R.q.Y ) ` ` J Z G G G G Z N ",
"N C Z Z G Z Z ) ) ) ) ( T N.`.[._.m.K Z J C 5.W.].'.V.8.Y ) ) ) Z C Z Z Z Z Z N ",
": N V V Z V V G G G G Z B ] V.E.N.0.I B Z Z Q m.Z.C.] I Z G G G V N V V V V V v ",
": N V V C V V Z G G G Z V B ' ] ] / T B I T T ' ] ' B Z Z G G Z V N V V V V V 2 ",
"2 2 v v N v v C Z Z Z Z V B I T T T I B B T T T T B V Z Z Z Z C v 2 v v v 2 v 2 "
};
