/* XPM */
static char *_a8090d79691467bb52033e934652bd2C7jnuV3eACjYDwhe[] = {
/* columns rows colors chars-per-pixel */
"60 60 185 2 ",
"   c None",
".  c #010103",
"X  c #0B0607",
"o  c #00020B",
"O  c #0B050B",
"+  c #0B0B0B",
"@  c #190504",
"#  c #1F0709",
"$  c #12090E",
"%  c #1D0A0C",
"&  c #110303",
"*  c #000513",
"=  c #0E0610",
"-  c #0A0B13",
";  c #010B1A",
":  c #0A0C19",
">  c #010817",
",  c #140C12",
"<  c #1B0D16",
"1  c #100F1B",
"2  c #01111F",
"3  c #0C101F",
"4  c #121212",
"5  c #1B1416",
"6  c #13111C",
"7  c #1B131B",
"8  c #1B1B1B",
"9  c #2D0A07",
"0  c #230D0C",
"q  c #2C0C0B",
"w  c #200807",
"e  c #340D0B",
"r  c #380E0E",
"t  c #24100F",
"y  c #2B110E",
"u  c #36110D",
"i  c #3A110D",
"p  c #220C11",
"a  c #3A0E11",
"s  c #261314",
"d  c #23151B",
"f  c #2A171C",
"g  c #2D191E",
"h  c #291914",
"j  c #3E1311",
"k  c #341A1C",
"l  c #3A1A1A",
"z  c #361813",
"x  c #35220E",
"c  c #372210",
"v  c #3B2511",
"b  c #011422",
"n  c #091623",
"m  c #011925",
"M  c #021B2B",
"N  c #0A1B27",
"B  c #191D29",
"V  c #021F30",
"C  c #201520",
"Z  c #241C23",
"A  c #2C1B21",
"S  c #241F2C",
"D  c #331E24",
"F  c #06202D",
"G  c #022233",
"H  c #032639",
"J  c #032A3C",
"K  c #16303F",
"L  c #242424",
"P  c #24262C",
"I  c #2A232B",
"U  c #2D2C2D",
"Y  c #392824",
"T  c #38322D",
"R  c #282531",
"E  c #322D39",
"W  c #343334",
"Q  c #323339",
"!  c #32393D",
"~  c #3A3A3A",
"^  c #3B3339",
"/  c #43160D",
"(  c #45180D",
")  c #49190E",
"_  c #431415",
"`  c #461A12",
"'  c #4C1B14",
"]  c #4E1D18",
"[  c #491715",
"{  c #511D18",
"}  c #452214",
"|  c #4A2416",
" . c #412913",
".. c #4C2918",
"X. c #55221A",
"o. c #59241C",
"O. c #5D291E",
"+. c #512014",
"@. c #4C3218",
"#. c #5B3C1E",
"$. c #55381C",
"%. c #602B1F",
"&. c #682A1E",
"*. c #742B1E",
"=. c #421D20",
"-. c #422526",
";. c #442D2B",
":. c #542C27",
">. c #49322F",
",. c #4A3434",
"<. c #443A3C",
"1. c #4C3D3B",
"2. c #5C3A34",
"3. c #563F3B",
"4. c #612B21",
"5. c #754E2A",
"6. c #694731",
"7. c #032D41",
"8. c #043246",
"9. c #05344B",
"0. c #3B3C48",
"q. c #443E43",
"w. c #414243",
"e. c #494544",
"r. c #464449",
"t. c #494949",
"y. c #564D4D",
"u. c #534E5C",
"i. c #555454",
"p. c #5B5253",
"a. c #5D585B",
"s. c #6D584C",
"d. c #635D5C",
"f. c #685B53",
"g. c #765D51",
"h. c #7F6559",
"j. c #625C60",
"k. c #636363",
"l. c #6C6362",
"z. c #696969",
"x. c gray43",
"c. c #66696C",
"v. c #757576",
"b. c #797979",
"n. c #7F7D7D",
"m. c #72787C",
"M. c #8E3C36",
"N. c #9A4039",
"B. c #B05F4C",
"V. c #8F705D",
"C. c #856754",
"Z. c #AE795D",
"A. c #BD7257",
"S. c #BA7A5D",
"D. c #927062",
"F. c #827E76",
"G. c #B87E61",
"H. c #8E8B7F",
"J. c #94867D",
"K. c #A1816B",
"L. c #D28E6A",
"P. c #DA9A77",
"I. c #C98564",
"U. c #E4A37C",
"Y. c #828282",
"T. c gray54",
"R. c #8C8C8C",
"E. c #9A9988",
"W. c #969696",
"Q. c #9A9A9A",
"!. c gray62",
"~. c #9EA194",
"^. c #A1A1A1",
"/. c #A6A6A6",
"(. c #AFAFAF",
"). c #B3B3B3",
"_. c #E3AE8F",
"`. c #EBBC9F",
"'. c #F3C8AB",
"]. c #E9D8D1",
"[. c #F9E0D0",
"{. c #F6E5DD",
"}. c #F8E6DE",
"|. c #FAECE7",
" X c #FAEDE8",
/* pixels */
"                                                        . . o . .                                                       ",
"                                                . . . . * o o * * . . . .                                               ",
"                                            . . . o * . * o o * * . . o o . .                                           ",
"                                          . . . o * * . * * * > * . o o . . . .                                         ",
"                                        . . . o * * * o * * ; ; * . * o o o o . .                                       ",
"                                        . . . * * * * * * ; ; ; * o * * * o * o . .                                     ",
"                                      . . o o * * * ; * b b b ; ; * ; ; ; ; * o o . .                                   ",
"                                    . . * * ; * * 2 m ; 8.9.H b ; ; * 2 m b ; * * . .                                   ",
"                                    X . * ; b * M J M 9.M 7.9.J b ; o * G H * ; * * o .                                 ",
"                                    X . ; ; J b b G 7.G 7.G J 7.m ; * ; G J ; ; ; * . .                                 ",
"                                    X . * * 8.M b G 9.H 9.G F H G ; * M G M * * * * . .                                 ",
"                                    , 4 . * J b b G 9.7.7.G M G 8.2 ; G V ; * o o 6 - .                                 ",
"                                    U W + : N b b G 7.m M J H G 8.m ; b M m : n - Q P .                                 ",
"                                  O L t.t.t.t.B G 7.m m 9.G H 7.m m ; b H K t.t.t.t.P .                                 ",
"                                  . T i.b.^.).k.w.w.w.r.w.w.w.w.w.w.w.w.w.k.).^.b.i.P .                                 ",
"                                . + 6.g.i.k.z.^.(./.Q.R.t.R.Q.b.t.z.R.W.Q.R.z.k.i.U + .                                 ",
"                                  , D.V.L P P v.R.Y.n.v.t.v.n.z.t.k.v.n.Y.c.P P P - . .                                 ",
"                                  $ C.K.. ; * P Q Q Q ! r.i.i.t.i.t.! 0.! R * . * o . .                                 ",
"                                  . Y C.. o * ; * * ; M w.x.k.a.b.t.F 2 * * ; . > * . .                                 ",
"                                  . . . . . * * * ; b 9.w.R.b.k.!.t.n ; * o ; * o o . .                                 ",
"                                  . . o . o o o * ; b 9.w.Q.Y.k.!.t.n ; * . o ; . . o o                                 ",
"                                    . . . o o * * * ; G w.^.T.k.!.t.: ; ; o o * . . o *                                 ",
"                                  f g f g >.A 1 * * ; b w./.R.k.!.t.- M b : g >.k f f d                                 ",
"                                d l e e 9 9 i D 7 6 ; ; w./.R.k.!.t.- B B D r 9 9 e e l d                               ",
"                                e ( ` j e e O.i e k : 3 w./.R.k.W.w., k e u ' 9 e / ` j e                               ",
"                              9 _ *.&.X.O._ O.X.o.X.9 9 w.).W.t.w.9 9 ` o.O.' 9 ' O.o.' ( 9                             ",
"                              9 ' O.o.X.O._ O.X.o.o.] O.e.).W.1.:.' o.X.o.O.' 9 ' O.o.o.*.9                             ",
"                          5 l / ] O.o.X.O._ j u i _ { 4.e.).W.1.%.{ O.` u i u 9 ' O.o.X.&.a k 5                         ",
"                          d e ) { O.o.X.O._ i r u i _ ' ;.b.l.-.` _ ` j u u e i _ o.o.X.O._ e d                         ",
"                          d e ' { O.o.{ o._ ' [ ' ` e e e Y Y e e e e _ ' ' _ ' j X.o.X.O._ e d                         ",
"                          A u 4.{ O.X.' [ { %.X.o.o._ ' _ [ ` _ [ _ [ ' o.O.{ 4.e | o.X.4.{ e g                         ",
"                        g e _ 4.{ O.` e [ { %.X.o.O.{ 4.{ O.o.X.%.{ %.X.o.O.{ 4.e / ' X.4.{ [ e g                       ",
"                        g e _ 4.{ O.` e [ { %.X.o.O.{ 4.{ O.o.X.%.{ O.X.o.O.{ 4._ e _ X.4.{ [ e g                       ",
"                        g e _ 4.{ O.` e [ { %.X.o.O.{ 4.{ O.o.X.%.{ O.X.o.O.{ 4._ e j X.4.{ [ e g                       ",
"                        g e _ 4.{ O.` e i ` O.X.o.O.{ 4.{ O.o.X.%.{ O.X.o.O.{ .._ e j X.%.{ [ e g                       ",
"                        g e _ 4.{ X._ 9 z x X.X.{ X.{ 4.{ O.o.X.%.{ O.] { o.' x _ e u ] 4.{ [ e g                       ",
"                        g e _ o.' u q q f x x ` u u ] O.] O.o.X.O.] O.j i ` x x _ e q z o.' ( e g                       ",
"                        < = = = = = >., $ x x v  . . . . . . . . . . . . .v x x ] u k = O O O O <                       ",
"                        < I d.E.d.U d s $ 9 c x v @.#.#.5.5.6.#.#. . . .v x c O.u p d Q m.p.p.I <                       ",
"                        < Z p.F.E.<.S I $ a X.v c v  .@.$.$.@. . .c c c c v ' 4.% I S q.~.l.y.Z <                       ",
"                        < C q.p.H.i.r.^ , _ O.| } } } } } ..| } | z | } } | { 4.$ ^ r.i.T.p.q.C <                       ",
"                        O C E <.j.a.p.<., { %.X.o.O.' / ' O.o.X.O.j O.X.o.O.{ 4.$ <.p.a.j.<.E C O                       ",
"                          O < <.u.0.R 7 , { %.X.o.O.' 9 ' O.o.X.O.9 O.X.o.O.{ 4.$ 7 R 0.u.<.< O                         ",
"                              = = = = p [ { %.X.o.o.j 9 ' O.o.X.O.9 ( ' o.O.{ 4._ % = = O =                             ",
"                                  # q e ` _ ' _ [ ( e 9 _ [ ` _ [ 9 ( ' o.O.{ 4._ i e #                                 ",
"                                    & w e e e e e z A A e e e e u A u _ ' ] _ +._ u e w                                 ",
"                                    . X t s 0 t s s 4 4 % @ @ @ % 4 0 e u i r i r 0 @                                   ",
"                                    . + L U L 8 8 8 8 + .       . + 8 s q q y y y $ .                                   ",
"                                    . + U 8 U L 8 8 4 . .       . . 4 8 8 L U 8 U + .                                   ",
"                                    . 4 ~ U 8 8 4 4 8 4 .       . 4 8 4 4 8 8 U ~ 4 .                                   ",
"                                      s + + L L 8 8 4 4 .       . 4 4 8 8 L L + + s                                     ",
"                                    $ =.4.4.5 + 4 4 4 X .       . X 4 4 4 + 5 4.4.=.$                                   ",
"                                    $ :.B.B.s.f.T + + . .       . . + + T f.s.B.B.:.$                                   ",
"                                    $ 2.G.L.}. XJ.Y h X .       . X h Y J. X{.Z.I.2.$                                   ",
"                                    $ 3.p.U.}.|.[.`.S.d           d S.`.[.|.].U G.2.$                                   ",
"                                      4 U N.P.'._.A.M.d           d M.A._.'.P.t.D                                       ",
"                                        U e.>.,.,.-.k   ~     U     k -.,.1.e.~                                         ",
"                                          ~ W W W W W U ~   8 ~ U U W W W W ~ 7                                         ",
"                                          8 ~ w.w.w.w.w.8     L w.w.w.w.w.~ 8                                           ",
"                                            L L L L L L         L L L L L 8                                             "
};
