/* XPM */
static char *xpm_[] = {
/* columns rows colors chars-per-pixel */
"60 60 188 2 ",
"   c None",
".  c #010104",
"X  c #0E0707",
"o  c #00020B",
"O  c #0B0B0B",
"+  c #120A0D",
"@  c #1D0A0C",
"#  c #000513",
"$  c #0E0610",
"%  c None",
"&  c #010B1A",
"*  c #070A18",
"=  c #140B12",
"-  c #180D15",
";  c #100F1B",
":  c #01111F",
">  c #0C101F",
",  c gray7",
"<  c #191614",
"1  c #13111C",
"2  c #191419",
"3  c #1B1B1B",
"4  c #2D0A07",
"5  c #230D0C",
"6  c #2B0D0B",
"7  c #340D0B",
"8  c #380E0E",
"9  c #24100F",
"0  c #2B110E",
"q  c #36110D",
"w  c #3A110D",
"e  c #220C11",
"r  c #3A0E11",
"t  c #251212",
"y  c #22131B",
"u  c #2A1919",
"i  c #371713",
"p  c #3E1311",
"a  c #331A1B",
"s  c #3C1D1D",
"d  c #35220E",
"f  c #372210",
"g  c #3B2511",
"h  c #011422",
"j  c #091623",
"k  c #011925",
"l  c #0A1B27",
"z  c #021B2B",
"x  c #1F1F20",
"c  c #191D29",
"v  c #021F30",
"b  c #271721",
"n  c #241C24",
"m  c #2B1C21",
"M  c #241F2C",
"N  c #331E24",
"B  c #3B1E20",
"V  c #06202D",
"C  c #022233",
"Z  c #032639",
"A  c #032A3C",
"S  c #16303F",
"D  c #232323",
"F  c #24262C",
"G  c #2A232B",
"H  c #2C2B2C",
"J  c #372725",
"K  c #392524",
"L  c #33252C",
"P  c #38322D",
"I  c #282531",
"U  c #322D39",
"Y  c #343334",
"T  c #323339",
"R  c #3B3339",
"E  c #32393D",
"W  c #3C3A3C",
"Q  c #43160D",
"!  c #45180D",
"~  c #49190E",
"^  c #431415",
"/  c #491715",
"(  c #461A12",
")  c #4C1B14",
"_  c #4E1D18",
"`  c #511D18",
"'  c #452214",
"]  c #4A2416",
"[  c #412913",
"{  c #4C2918",
"}  c #512014",
"|  c #55221A",
" . c #59241C",
".. c #5D291E",
"X. c #4C3218",
"o. c #55381C",
"O. c #5B3C1E",
"+. c #602B1F",
"@. c #682A1E",
"#. c #742B1E",
"$. c #421D20",
"%. c None",
"&. c #422E2A",
"*. c #542C27",
"=. c #49322F",
"-. c #422E32",
";. c #443533",
":. c #4A3435",
">. c #433A3D",
",. c #4B3C3B",
"<. c #5D3A34",
"1. c #612B21",
"2. c #57413D",
"3. c #754E2A",
"4. c #694731",
"5. c #032D41",
"6. c #043246",
"7. c #05344B",
"8. c #3C3C46",
"9. c #433E42",
"0. c #424243",
"q. c #494544",
"w. c #454449",
"e. c #4C4348",
"r. c #494949",
"t. c #5A4C4C",
"y. c #4A4C50",
"u. c #564E59",
"i. c #535353",
"p. c #5B5253",
"a. c #595658",
"s. c #5D5B5D",
"d. c #6D584C",
"f. c #62575A",
"g. c #655C58",
"h. c #765D51",
"j. c #7F6559",
"k. c #625C60",
"l. c #646364",
"z. c #6A6565",
"x. c #6B6A6B",
"c. c #746D6E",
"v. c #747475",
"b. c #77767A",
"n. c gray48",
"m. c #8E3C36",
"M. c #9A4039",
"N. c #B05F4C",
"B. c #856754",
"V. c #8F705D",
"C. c #AE795D",
"Z. c #BC765A",
"A. c #927062",
"S. c #827E76",
"D. c #817C7F",
"F. c #B87E61",
"G. c #8E8B7F",
"H. c #94867D",
"J. c #A1816B",
"K. c #CE8A67",
"L. c #DA9A77",
"P. c #E4A37C",
"I. c #837F81",
"U. c gray51",
"Y. c #898587",
"T. c gray54",
"R. c #8D8D8D",
"E. c #9A9988",
"W. c gray59",
"Q. c #9D9797",
"!. c gray61",
"~. c #9EA194",
"^. c #A4A3A3",
"/. c #A8A6A7",
"(. c #AFAEAE",
"). c #B4B4B4",
"_. c #BDBCBC",
"`. c #E3AE8F",
"'. c #EBBC9F",
"]. c #F3C8AB",
"[. c #C1BFC0",
"{. c #C5C5C5",
"}. c gray82",
"|. c #D7D7D7",
" X c #DFDFDF",
".X c #E9D8D1",
"XX c #F9E0D0",
"oX c gray90",
/* pixels */
"%%%%%%%%%%%%%%%%%%%%%%%%%%%%%%%%%%%%%%%%%%%%%%%%%%|.|.|., . o . , |.|.|.%%%%%%%%%%%%%%%%%%%%%%%%%%%%%%%%%%%%%%%%%%%%%%%%",
"%%%%%%%%%%%%%%%%%%%%%%%%%%%%%%%%%%%%%%%%%%%%%%%%n.. . . # o o # # . . . n.%%%%%%%%%%%%%%%%%%%%%%%%%%%%%%%%%%%%%%%%%%%%%%",
"%%%%%%%%%%%%%%%%%%%%%%%%%%%%%%%%%%%%%%%%%%%%x O . o # . # o o # # . . o o O x%%%%%%%%%%%%%%%%%%%%%%%%%%%%%%%%%%%%%%%%%% ",
"%%%%%%%%%%%%%%%%%%%%%%%%%%%%%%%%%%%%%%%%oX0.. . o # # . # # # & # . o o . . . 0.oX%%%%%%%%%%%%%%%%%%%%%%%%%%%%%%%%%%%%%%",
"%%%%%%%%%%%%%%%%%%%%%%%%%%%%%%%%%%%%%%}.s.. . o # # # o # # & & # . # o o o o . s.}.%%%%%%%%%%%%%%%%%%%%%%%%%%%%%%%%%%%%",
"%%%%%%%%%%%%%%%%%%%%%%%%%%%%%%%%%%%%%%Q.. . . # # # # # # & & & # o # # # o # o . z.}.%%%%%%%%%%%%%%%%%%%%%%%%%%%%%%%%%%",
"%%%%%%%%%%%%%%%%%%%%%%%%%%%%%%%%%%%%%%z.. o o # # # & # h h h & & # & & & & # o o . b.%%%%%%%%%%%%%%%%%%%%%%%%%%%%%%%%%%",
"%%%%%%%%%%%%%%%%%%%%%%%%%%%%%%%%%%%%b.. # # & # # : k & 6.7.Z h & & # : k h & # # . b.%%%%%%%%%%%%%%%%%%%%%%%%%%%%%%%%%%",
"%%%%%%%%%%%%%%%%%%%%%%%%%%%%%%%%%%%%9.. # & h # z A z 7.z 5.7.A h & o # C Z # & # # o y.%%%%%%%%%%%%%%%%%%%%%%%%%%%%%%%%",
"%%%%%%%%%%%%%%%%%%%%%%%%%%%%%%%%%%%%W . & & A h h C 5.C 5.C A 5.k & # & C A & & & # . 0.%%%%%%%%%%%%%%%%%%%%%%%%%%%%%%%%",
"%%%%%%%%%%%%%%%%%%%%%%%%%%%%%%%%%%%%W . # # 6.z h C 7.Z 7.C V Z C & # z C z # # # # . 0.%%%%%%%%%%%%%%%%%%%%%%%%%%%%%%%%",
"%%%%%%%%%%%%%%%%%%%%%%%%%%%%%%%%%%%%W , . # A h h C 7.5.5.C z C 6.: & C v & # o o 1 % 0.%%%%%%%%%%%%%%%%%%%%%%%%%%%%%%%%",
"%%%%%%%%%%%%%%%%%%%%%%%%%%%%%%%%%%}.W Y O * l h h C 5.k z A Z C 6.k & h z k * > % Y F 8.%%%%%%%%%%%%%%%%%%%%%%%%%%%%%%%%",
"%%%%%%%%%%%%%%%%%%%%%%%%%%%%%%%%%%2 F r.r.r.r.c C 5.k k 7.C Z 5.k k & h Z S r.r.r.r.F 2%%%%%%%%%%%%%%%%%%%%%%%%%%%%%%%% ",
"%%%%%%%%%%%%%%%%%%%%%%%%%%%%%%%%%%2 P a.b.^.).l.0.0.0.w.0.0.0.0.0.0.0.0.0.l.).^.b.a.F <%%%%%%%%%%%%%%%%%%%%%%%%%%%%%%%% ",
"%%%%%%%%%%%%%%%%%%%%%%%%%%%%%%%%i.Y 4.h.a.l.x.^.(.^.Q.R.r.R.Q.b.r.x.T.W.Q.R.x.l.a.H O 2%%%%%%%%%%%%%%%%%%%%%%%%%%%%%%%% ",
"%%%%%%%%%%%%%%%%%%%%%%%%%%%%%%%%T.e.A.V.D F F v.R.Y.n.v.r.v.D.x.r.l.v.n.U.x.F F F % . <%%%%%%%%%%%%%%%%%%%%%%%%%%%%%%%% ",
"%%%%%%%%%%%%%%%%%%%%%%%%%%%%%%%%%%>.j.J.. & # F T T T E w.i.i.r.a.r.E 8.E I # . # o . 2%%%%%%%%%%%%%%%%%%%%%%%%%%%%%%%% ",
"%%%%%%%%%%%%%%%%%%%%%%%%%%%%%%%%%%3 &.B.. o # & # # & z 0.x.l.a.b.r.V : # # & o & # . 3%%%%%%%%%%%%%%%%%%%%%%%%%%%%%%%% ",
"%%%%%%%%%%%%%%%%%%%%%%%%%%%%%%%%%%0.. . . . # # # & h 7.0.T.b.z.!.r.j & # o & # o o . 0.%%%%%%%%%%%%%%%%%%%%%%%%%%%%%%%%",
"%%%%%%%%%%%%%%%%%%%%%%%%%%%%%%%%%%0.. o . o o o # & h 7.0.Q.U.z.!.r.j & # . o & . . o w.%%%%%%%%%%%%%%%%%%%%%%%%%%%%%%%%",
"%%%%%%%%%%%%%%%%%%%%%%%%%%%%%%%%%%{.a.. . o o # # # & C 0.^.T.z.!.r.* & & o o # . . o y.%%%%%%%%%%%%%%%%%%%%%%%%%%%%%%%%",
"%%%%%%%%%%%%%%%%%%%%%%%%%%%%%%%%%%p.-.N a =.m ; # # & h 0.^.T.z.!.r.% z h % a =.J J N L%%%%%%%%%%%%%%%%%%%%%%%%%%%%%%%% ",
"%%%%%%%%%%%%%%%%%%%%%%%%%%%%%%%%c.s 7 7 4 4 w N 2 1 & & 0.^.T.z.!.r.% c c N 8 4 4 7 7 s c.%%%%%%%%%%%%%%%%%%%%%%%%%%%%%%",
"%%%%%%%%%%%%%%%%%%%%%%%%%%%%%%[.7 ! ( p 7 7 ..w 7 a * > 0.^.R.l.W.0.; a 7 q ) 4 7 Q ( p 7 [.%%%%%%%%%%%%%%%%%%%%%%%%%%%%",
"%%%%%%%%%%%%%%%%%%%%%%%%%%%%/.4 ^ #.@.| ..^ ..|%%.| 4 4 0.).W.r.0.4 4 (%%...) 4 ) .. .) ! 4 /.%%%%%%%%%%%%%%%%%%%%%%%%%%",
"%%%%%%%%%%%%%%%%%%%%%%%%%%%%/.4 ) .. .| ..^ ..|%%..._ ..q.).W.,.*.)%%.|%%...) 4 ) .. . .#.4 /.%%%%%%%%%%%%%%%%%%%%%%%%%%",
"%%%%%%%%%%%%%%%%%%%%%%%%%%D.s Q _ .. .| ..^ p q w ^ ` 1.q.).W.,.+.` ..( q w q 4 ) .. .| @.r B D.%%%%%%%%%%%%%%%%%%%%%%%%",
"%%%%%%%%%%%%%%%%%%%%%%%%%%f.7 ~ ` .. .| ..^ w 8 q w ^ ) &.n.z.%.( ^ ( p q q 7 w ^%%. .| ..^ 7 f.%%%%%%%%%%%%%%%%%%%%%%%%",
"%%%%%%%%%%%%%%%%%%%%%%%%%%f.7 ) ` .. .`%%.^ ) / ) ( 7 7 7 J K 7 7 7 7 ^ ) ) ^ ) p |%%.| ..^ 7 f.%%%%%%%%%%%%%%%%%%%%%%%%",
"%%%%%%%%%%%%%%%%%%%%%%%%oXp.q 1.` ..| ) / ` +.|%%. .^ ) ^ / ( ^ / ^ / )%%...` 1.7 ]%%.| 1.` 7 t.oX%%%%%%%%%%%%%%%%%%%%%%",
"%%%%%%%%%%%%%%%%%%%%%%%%-.7 ^ 1.` ..( 7 / ` +.|%%...` 1.` .. .| +.` +.|%%...` 1.7 Q ) | 1.` / 7 -.%%%%%%%%%%%%%%%%%%%%%%",
"%%%%%%%%%%%%%%%%%%%%%%%%-.7 ^ 1.` ..( 7 / ` +.|%%...` 1.` .. .| +.` ..|%%...` 1.^ 7 ^ | 1.` / 7 -.%%%%%%%%%%%%%%%%%%%%%%",
"%%%%%%%%%%%%%%%%%%%%%%%%-.7 ^ 1.` ..( 7 / ` +.|%%...` 1.` .. .| +.` ..|%%...` 1.^ 7 p | 1.` / 7 -.%%%%%%%%%%%%%%%%%%%%%%",
"%%%%%%%%%%%%%%%%%%%%%%%%-.7 ^ 1.` ..( 7 w ( ..|%%...` 1.` .. .| +.` ..|%%...` { ^ 7 p | +.` / 7 -.%%%%%%%%%%%%%%%%%%%%%%",
"%%%%%%%%%%%%%%%%%%%%%%%%-.7 ^ 1.` | ^ i s d | | ` | ` 1.` .. .| +.` .._ `%%.) d ^ 7 q _ 1.` / 7 -.%%%%%%%%%%%%%%%%%%%%%%",
"%%%%%%%%%%%%%%%%%%%%%%%%-.7 ^%%.) q 6 6 u d d ( q q _ .._ .. .| .._ ..p w ( d d ^ 7 6 i%%.) ! 7 -.%%%%%%%%%%%%%%%%%%%%%%",
"%%%%%%%%%%%%%%%%%%%%%%%%b $ $ $ $ $ =.= + d d g [ [ [ [ [ [ [ [ [ [ [ [ [ g d d _ q a $ $ $ $ $ b%%%%%%%%%%%%%%%%%%%%%% ",
"%%%%%%%%%%%%%%%%%%%%%%%%b G g.E.f.H y t + 4 f d g X.O.O.3.3.4.O.O.[ [ [ g d f ..q e y T b.p.p.G b%%%%%%%%%%%%%%%%%%%%%% ",
"%%%%%%%%%%%%%%%%%%%%%%%%b n p.S.E.>.M G + r | g f g [ X.o.o.X.[ [ f f f f g ) 1.@ G M 9.~.l.t.n b%%%%%%%%%%%%%%%%%%%%%% ",
"%%%%%%%%%%%%%%%%%%%%%%%%L n 9.p.G.i.w.R = ^ ..] ' ' ' ' ' { ] ' ] i ] ' ' ] ` 1.+ R w.i.Y.p.9.n L%%%%%%%%%%%%%%%%%%%%%% ",
"%%%%%%%%%%%%%%%%%%%%%%%%k.n U >.k.s.p.>.= ` +.|%%...) Q ) .. .| ..p ..|%%...` 1.+ >.p.s.k.>.U n k.%%%%%%%%%%%%%%%%%%%%%%",
"%%%%%%%%%%%%%%%%%%%%%%%%%%b.- >.u.8.I 2 = ` +.|%%...) 4 ) .. .| ..4 ..|%%...` 1.+ 2 I 8.u.>.- b.%%%%%%%%%%%%%%%%%%%%%%%%",
"%%%%%%%%%%%%%%%%%%%%%%%%%%%%_.$ $ $ $ e / ` +.|%%. .p 4 ) .. .| ..4 ! )%%...` 1.^ @ $ $ $ $ _.%%%%%%%%%%%%%%%%%%%%%%%%%%",
"%%%%%%%%%%%%%%%%%%%%%%%%%%%%%%).).:.6 7 ( ^ ) ^ / ! 7 4 ^ / ( ^ / 4 ! )%%...` 1.^ w 7 :.).).%%%%%%%%%%%%%%%%%%%%%%%%%%%%",
"%%%%%%%%%%%%%%%%%%%%%%%%%%%%%%%%%%_.c.a 7 7 7 7 7 i m m 7 7 7 7 q m q ^ ) _ ^ } ^ q 7 t.%%%%%%%%%%%%%%%%%%%%%%%%%%%%%%%%",
"%%%%%%%%%%%%%%%%%%%%%%%%%%%%%%%%%%%%b.X 9 t 5 9 t t , , @ J ;.J @ , 5 7 q w 8 w 8 5 ,.Q.%%%%%%%%%%%%%%%%%%%%%%%%%%%%%%%%",
"%%%%%%%%%%%%%%%%%%%%%%%%%%%%%%%%%%%%b.O D H D 3 3 3 3 O . ).%%).. O 3 t 6 6 0 0 0 + b.%%%%%%%%%%%%%%%%%%%%%%%%%%%%%%%%%%",
"%%%%%%%%%%%%%%%%%%%%%%%%%%%%%%%%%%%%b.O H 3 H D 3 3 , . . ).%%).. . , < 3 D H 3 H O b.%%%%%%%%%%%%%%%%%%%%%%%%%%%%%%%%%%",
"%%%%%%%%%%%%%%%%%%%%%%%%%%%%%%%%%%%%b., W H 3 3 , , 3 , . ).%%).. , 3 , , 3 3 H W , b.%%%%%%%%%%%%%%%%%%%%%%%%%%%%%%%%%%",
"%%%%%%%%%%%%%%%%%%%%%%%%%%%%%%%%%%%%Y.J O O F D 3 3 , , . ).%%).. , , < 3 D F O O K Y.%%%%%%%%%%%%%%%%%%%%%%%%%%%%%%%%%%",
"%%%%%%%%%%%%%%%%%%%%%%%%%%%%%%%%%%%%D.$.1.1.< O , , , . . ).%%).. . , , , O < 1.1.$.D.%%%%%%%%%%%%%%%%%%%%%%%%%%%%%%%%%%",
"%%%%%%%%%%%%%%%%%%%%%%%%%%%%%%%%%%%%I.*.N.N.d.g.P O O . . ).%%).. . O O P g.d.N.N.*.D.%%%%%%%%%%%%%%%%%%%%%%%%%%%%%%%%%%",
"%%%%%%%%%%%%%%%%%%%%%%%%%%%%%%%%%%%%D.<.F.K.%%%%H.J u . Y {.%%{.Y . u J H.%%%%C.K.<.D.%%%%%%%%%%%%%%%%%%%%%%%%%%%%%%%%%%",
"%%%%%%%%%%%%%%%%%%%%%%%%%%%%%%%%%%%%I.2.p.P.%%%%XX'.Z.y oX%%%%%%oXy Z.'.XX%%.XH F.<.I.%%%%%%%%%%%%%%%%%%%%%%%%%%%%%%%%%%",
"%%%%%%%%%%%%%%%%%%%%%%%%%%%%%%%%%%%%%%n.H M.L.].`.Z.m.y oX%%%%%%oXy m.Z.`.].L.r.N (.%%%%%%%%%%%%%%%%%%%%%%%%%%%%%%%%%%%%",
"%%%%%%%%%%%%%%%%%%%%%%%%%%%%%%%%%%%%%%^.Y q.=.:.:.%.-.}.x.{.^.Y.%%}.-.%.:.,.q.Y ^.%%%%%%%%%%%%%%%%%%%%%%%%%%%%%%%%%%%%%%",
"%%%%%%%%%%%%%%%%%%%%%%%%%%%%%%%%%%%%%% XR.W l.l.l.l.z.U.W ).R.r.U.U.z.l.l.a.W x.%%%%%%%%%%%%%%%%%%%%%%%%%%%%%%%%%%%%%%%%",
"%%%%%%%%%%%%%%%%%%%%%%%%%%%%%%%%%%%%%%%%%%b.0.0.0.0.0.0.v.}.).z.0.0.0.2.0.r.U.%%%%%%%%%%%%%%%%%%%%%%%%%%%%%%%%%%%%%%%%%%",
"%%%%%%%%%%%%%%%%%%%%%%%%%%%%%%%%%%%%%%%%%%%%s.i.i.i.i.i.%%%%%%{.i.i.i.i.i.n.%%%%%%%%%%%%%%%%%%%%%%%%%%%%%%%%%%%%%%%%%%%%"
};
