/* XPM */
static char *_3a871e9c69b4d2b8103e1d08e917269V7AsLjKlvhdPYZhm[] = {
/* columns rows colors chars-per-pixel */
"40 40 178 2 ",
"   c None",
".  c #020104",
"X  c #01030C",
"o  c #0E070B",
"O  c #0D0B0C",
"+  c #19060A",
"@  c #120B0D",
"#  c #160807",
"$  c #010513",
"%  c #020815",
"&  c #0E0912",
"*  c #020C1B",
"=  c #0B0E18",
"-  c #140E14",
";  c #1C0D16",
":  c #02111F",
">  c #0D111D",
",  c #141414",
"<  c #191817",
"1  c #17101B",
"2  c #1E121A",
"3  c #1C1A1B",
"4  c #270806",
"5  c #2B0C0A",
"6  c #260B0B",
"7  c #340E0C",
"8  c #380F0D",
"9  c #2D110E",
"0  c #32120D",
"q  c #3A110D",
"w  c #270F11",
"e  c #2B0F11",
"r  c #241315",
"t  c #2B1214",
"y  c #25151A",
"u  c #2B1419",
"i  c #241C1C",
"p  c #2E181D",
"a  c #251A14",
"s  c #321414",
"d  c #3C1212",
"f  c #3C1C13",
"g  c #311618",
"h  c #37191A",
"j  c #36220E",
"k  c #2B231D",
"l  c #362210",
"z  c #3C2411",
"x  c #011322",
"c  c #011827",
"v  c #021C2C",
"b  c #0D1925",
"n  c #1F1621",
"m  c #121A27",
"M  c #161F29",
"N  c #021D30",
"B  c #241C25",
"V  c #2F1B20",
"C  c #251F2C",
"Z  c #02202E",
"A  c #1D222A",
"S  c #022335",
"D  c #032739",
"F  c #03293A",
"G  c #172934",
"H  c #182E3A",
"J  c #252424",
"K  c #2C2324",
"L  c #2C232B",
"P  c #2A2A2A",
"I  c #26262A",
"U  c #322223",
"Y  c #3F2422",
"T  c #382922",
"R  c #30292F",
"E  c #332B26",
"W  c #2A2D34",
"Q  c #322B35",
"!  c #382F35",
"~  c #312C39",
"^  c #343435",
"/  c #353639",
"(  c #393639",
")  c #353B3E",
"_  c #45160F",
"`  c #431513",
"'  c #461913",
"]  c #4B1A15",
"[  c #4B1918",
"{  c #501E17",
"}  c #511E18",
"|  c #432214",
" . c #4C2117",
".. c #422913",
"X. c #4A2D16",
"o. c #47201A",
"O. c #4C231A",
"+. c #54221A",
"@. c #5A251D",
"#. c #53281D",
"$. c #5D291E",
"%. c #54361B",
"&. c #5E3E1F",
"*. c #6B281B",
"=. c #632A1E",
"-. c #472223",
";. c #502626",
":. c #512E2B",
">. c #532E26",
",. c #53322A",
"<. c #463130",
"1. c #433B3D",
"2. c #5E3F3B",
"3. c #5C3A32",
"4. c #63362E",
"5. c #72362F",
"6. c #7B3A31",
"7. c #55453F",
"8. c #6D4826",
"9. c #6D443A",
"0. c #032D41",
"q. c #053147",
"w. c #193A49",
"e. c #373E42",
"r. c #393F44",
"t. c #3A3441",
"y. c #3B4146",
"u. c #3F454A",
"i. c #404447",
"p. c #4C4343",
"a. c #4F474B",
"s. c #41494D",
"d. c #4C4A4B",
"f. c #5B4340",
"g. c #554E4E",
"h. c #4F5053",
"j. c #545454",
"k. c #5B5456",
"l. c #5B595B",
"z. c #674D48",
"x. c #654B46",
"c. c #62534E",
"v. c #7A5A4E",
"b. c #675C55",
"n. c #595B61",
"m. c #656364",
"M. c gray43",
"N. c #736A69",
"B. c #747168",
"V. c #717171",
"C. c #767676",
"Z. c #7E7E7E",
"A. c #7C7A7A",
"S. c #7F7B73",
"D. c #8B6F5F",
"F. c #A56D56",
"G. c #B37059",
"H. c #B6785C",
"J. c #D4997E",
"K. c gray53",
"L. c #868788",
"P. c #8C8C8D",
"I. c #888888",
"U. c #8B8C81",
"Y. c #93908F",
"T. c #939393",
"R. c #959595",
"E. c #939495",
"W. c #9A9A9A",
"Q. c #A49790",
"!. c #A1A1A1",
"~. c #D59D84",
"^. c #EAC1A9",
"/. c #E6C7B8",
"(. c #DECDC6",
"). c #E1D4CE",
"_. c #F6DDCF",
"`. c #F4D5C3",
/* pixels */
"                                    . . X .                                     ",
"                              . . X X X X $ . X . .                             ",
"                            . . X $ X $ $ $ X X X . .                           ",
"                          . . X $ $ $ % % $ X $ X $ X .                         ",
"                          . X $ $ * * N c * $ * : % X .                         ",
"                        . $ * % v v F 0.0.c % % S % % X .                       ",
"                        . $ c v v 0.D D F v % * S * % $ .                       ",
"                        - X x v c q.0.D Z 0.* v v $ X = o                       ",
"                        P J A b v D v D D F x x v A A / 3                       ",
"                      . 1.M.R.m.r.e.e.e.y.e.) ) s.E.K.l.3                       ",
"                      o v.d.h.L.!.T.V.A.K.j.V.P.P.l.d.I o                       ",
"                      @ D.3 = W i.y.i.j.j.j.d.u.r.> % X .                       ",
"                      . T O X $ $ * H M.m.Z.) x $ % X $ .                       ",
"                      . . . X X % x w.I.C.R./ * X X $ . X                       ",
"                        @ O - % $ * G T.Z.R.^ : % O , O &                       ",
"                      h 7 5 0 V 1 * M R.Z.R.^ m B s 0 7 s y                     ",
"                    5 ] ] ` ` ] f ; B W.Z.C.U g ` ] 7 ' ] q                     ",
"                    8 $.@.$.[ +.@.] :.!.A.,.] } @.} 8 @.@.*.4                   ",
"                  s ' @.+.$.` q q ] >.Y.N.#.] ' q q q @.@.=.d r                 ",
"                  7 ] @.+.@.` ' ' 8 q <.Y q 8 d ' ` ' +.@.$.d u                 ",
"                u d $.@.] ' +.+.@.] ] ] ] { ] { @.+.+.' +.$.] s                 ",
"                s ` $.@.` _ +.+.@.+.$.@.+.$.+.+.@.+.+.8 ] $.] q p               ",
"                s ` $.@.` _ +.+.@.+.$.@.+.$.+.+.@.+.+.8 ' $.] q p               ",
"                s ` $.+.q s | +.+.+.$.@.+.$.+.+.+. .f 8 ` $.] q p               ",
"                r e f e s r j | f | #.#.O.#.O.' f j f 8 t f s 5 y               ",
"                2 d.B.R y @ 0 j ..%.&.8.&.%.....z l  .e B n.a.L ;               ",
"                2 p.S.g.Q - ' | z ..X.%.X...z z z ] o.L ( U.k.L ;               ",
"                - Q g.l.a.2 +.+.@.] ' @.+.@.' +.@.+.o.! k.m.1.B                 ",
"                  - ! ~ n w +.+.@.] q @.+.$.q +.@.+.O.; C t.K                   ",
"                      + 4 _ ] ] ' 8 8 ] ] ] 7 ] @.+.@.d 6                       ",
"                        # 5 7 7 0 i r 5 5 5 r d ' ` ' 8 4                       ",
"                        . 3 J 3 3 < O     . , r 5 9 9 +                         ",
"                        . P J J < , .     . O , 3 J J ,                         ",
"                        @ , , J < , O     . , , 3 J O r                         ",
"                        u 5.4.K < O .     . . , k E 6.;.                        ",
"                        U F.~.).b.a .     . @ k Q.(.H.9.                        ",
"                        K p.~._.^.G.r       :.J.`./.7.3.                        ",
"                          P f.z.2.-.        g :.x.c.^                           ",
"                            ^ ( ( ( ^   J ^ ^ ( ^ ^                             ",
"                              P P P J     P P P J                               "
};
