/* XPM */
static char *f110e192ae05462ed2ace6a069e10b05MHZ0wxv2lF9eETKJ[] = {
/* columns rows colors chars-per-pixel */
"48 48 7 1 ",
"  c #2E1E16",
". c #5D4633",
"X c #201611",
"o c #392A1E",
"O c #433326",
"+ c #3B535E",
"@ c white",
/* pixels */
" .............................................. ",
"................................................",
"................................................",
"................................................",
".....XX        XXXX      X X XXXX        XX.....",
"....XXX        XXXX      X X XXXX        XXX....",
"....XooooooooooooooooooooooooooooooooooooooX....",
"....  oooooooooooooooooooooooooooooooooooo  ....",
"....oOOOOOOOOOOOOOOOOOOOOOOOOOOOOOOOOOOOOOOo....",
"....oOOOOOOOOOOOOOOOOOOOOOOOOOOOOOOOOOOOOOOo....",
"....oOOOOOOOOOOOOOOOOOOOOOOOOOOOOOOOOOOOOOOo....",
"....  oooooooooooooooooooooooooooooooooooo  ....",
"....oOOOOOOOOOOOOOOOOOOOOOOOOOOOOOOOOOOOOOOo....",
"....oOOOOOOOOOOOOOOOOOOOOOOOOOOOOOOOOOOOOOOo....",
"....oOOOOOOOOOOOOOOOOOOOOOOOOOOOOOOOOOOOOOOo....",
"....  oooooooooooooooooooooooooooooooooooo  ....",
".... oOOOOOOOOOOOOOOOOOOOOOOOOOOOOOOOOOOOOOo....",
".... oOOOOOOOOOOOOOOOOOOOOOOOOOOOOOOOOOOOOOo....",
".... oOOOOOOOOOOOOOOOOOOOOOOOOOOOOOOOOOOOOOo....",
"....   ooooooooooooooooooooooooooooooooooo  ....",
".... oOOOOOOOOOOOOOOOOOOOOOOOOOOOOOOOOOOOOOo....",
".... oOOOOOOOOOOOOOOOOOOOOOOOOOOOOOOOOOOOOOo....",
".... oOOOOOOOOOOOOOOOOOOOOOOOOOOOOOOOOOOOOOo....",
"....   ooooooooooooo      oooooooooooooooo  ....",
".... oOOOOOOOOOOOOOOOOO OOOOOOOOOOOOOOOOOOOo....",
".... oOOOOOOOOOOOOOOO+O O+OOOOOOOOOOOOOOOOOo....",
".... oOOOOOOOOOOOOOOOOO OOOOOOOOOOOOOOOOOOOo....",
"....   oooooooooooooo     oooooooooooooooo  ....",
".... oOOOOOOOOOOOOOOOOOOOOOOOOOOOOOOOOOOOOOo....",
".... oOOOOOOOOOOOOOOOOOOOOOOOOOOOOOOOOOOOOOo....",
".... oOOOOOOOOOOOOOOOOOOOOOOOOOOOOOOOOOOOOOo....",
"....   ooooooooooooooooooooooooooooooooooo  ....",
".... oOOOOOOOOOOOOOOOOOOOOOOOOOOOOOOOOOOOOo ....",
".... oOOOOOOOOOOOOOOOOOOOOOOOOOOOOOOOOOOOOo ....",
".... oOOOOOOOOOOOOOOOOOOOOOOOOOOOOOOOOOOOOo ....",
"....   oooooooooooooooooooooooooooooooooo   ....",
".... oOOOOOOOOOOOOOOOOOOOOOOOOOOOOOOOOOOOOo ....",
".... oOOOOOOOOOOOOOOOOOOOOOOOOOOOOOOOOOOOOo ....",
".... oOOOOOOOOOOOOOOOOOOOOOOOOOOOOOOOOOOOOo ....",
"....   oooooooooooooooooooooooooooooooooo   ....",
".... oOOOOOOOOOOOOOOOOOOOOOOOOOOOOOOOOOOOOo ....",
".... oOOOOOOOOOOOOOOOOOOOOOOOOOOOOOOOOOOOOo ....",
".... oooooooooooooooooooooooooooooooooooooo ....",
".....                                      .....",
"................................................",
"................................................",
"................................................",
" .............................................. "
};
